<svg xmlns="http://www.w3.org/2000/svg" xmlns:xlink="http://www.w3.org/1999/xlink" width="154" height="154" viewBox="0 0 154 154">
    <defs>
        <path id="prefix__a" d="M77 0c42.526 0 77 34.474 77 77s-34.474 77-77 77S0 119.526 0 77"/>
        <path id="prefix__c" d="M77 0c42.526 0 77 34.474 77 77s-34.474 77-77 77S0 119.526 0 77"/>
        <path id="prefix__e" d="M77 0c42.526 0 77 34.474 77 77s-34.474 77-77 77S0 119.526 0 77"/>
        <path id="prefix__g" d="M77 0c42.526 0 77 34.474 77 77s-34.474 77-77 77S0 119.526 0 77"/>
        <path id="prefix__i" d="M0.139 0.14L19.31 0.14 19.31 14.487 0.139 14.487z"/>
        <path id="prefix__k" d="M77 0c42.526 0 77 34.474 77 77s-34.474 77-77 77S0 119.526 0 77"/>
        <path id="prefix__m" d="M77 0c42.526 0 77 34.474 77 77s-34.474 77-77 77S0 119.526 0 77"/>
        <path id="prefix__o" d="M77 0c42.526 0 77 34.474 77 77s-34.474 77-77 77S0 119.526 0 77"/>
        <path id="prefix__q" d="M77 0c42.526 0 77 34.474 77 77s-34.474 77-77 77S0 119.526 0 77"/>
        <path id="prefix__s" d="M77 0c42.526 0 77 34.474 77 77s-34.474 77-77 77S0 119.526 0 77"/>
        <path id="prefix__u" d="M77 0c42.526 0 77 34.474 77 77s-34.474 77-77 77S0 119.526 0 77"/>
        <path id="prefix__w" d="M0.153 0.1L15.275 0.1 15.275 9.431 0.153 9.431z"/>
        <path id="prefix__y" d="M77 0c42.526 0 77 34.474 77 77s-34.474 77-77 77S0 119.526 0 77"/>
        <path id="prefix__A" d="M0.081 0.039L4.583 0.039 4.583 21.77 0.081 21.77z"/>
        <path id="prefix__C" d="M0.13 0.116L7.67 0.116 7.67 14.023 0.13 14.023z"/>
        <path id="prefix__E" d="M0.064 0.125L11.451 0.125 11.451 11.074 0.064 11.074z"/>
        <path id="prefix__G" d="M77 0c42.526 0 77 34.474 77 77s-34.474 77-77 77S0 119.526 0 77"/>
        <path id="prefix__I" d="M77 0c42.526 0 77 34.474 77 77s-34.474 77-77 77S0 119.526 0 77 34.474 0 77 0z"/>
        <path id="prefix__K" d="M77 0c42.526 0 77 34.474 77 77s-34.474 77-77 77S0 119.526 0 77 34.474 0 77 0z"/>
        <path id="prefix__M" d="M0.067 0.063L52.154 0.063 52.154 48.912 0.067 48.912z"/>
        <path id="prefix__O" d="M77 0c42.526 0 77 34.474 77 77s-34.474 77-77 77S0 119.526 0 77"/>
        <path id="prefix__Q" d="M0.015 0.009L13.163 0.009 13.163 12.918 0.015 12.918z"/>
        <path id="prefix__S" d="M77 0c42.526 0 77 34.474 77 77s-34.474 77-77 77S0 119.526 0 77 34.474 0 77 0z"/>
        <path id="prefix__U" d="M77 0c42.526 0 77 34.474 77 77s-34.474 77-77 77S0 119.526 0 77"/>
        <path id="prefix__W" d="M77 0c42.526 0 77 34.474 77 77s-34.474 77-77 77S0 119.526 0 77 34.474 0 77 0z"/>
        <path id="prefix__Y" d="M77 0c42.526 0 77 34.474 77 77s-34.474 77-77 77S0 119.526 0 77"/>
        <path id="prefix__aa" d="M77 0c42.526 0 77 34.474 77 77s-34.474 77-77 77S0 119.526 0 77 34.474 0 77 0z"/>
        <path id="prefix__ac" d="M77 0c42.526 0 77 34.474 77 77s-34.474 77-77 77S0 119.526 0 77"/>
        <path id="prefix__ae" d="M77 0c42.526 0 77 34.474 77 77s-34.474 77-77 77S0 119.526 0 77 34.474 0 77 0z"/>
        <path id="prefix__ag" d="M77 0c42.526 0 77 34.474 77 77s-34.474 77-77 77S0 119.526 0 77"/>
        <path id="prefix__ai" d="M77 0c42.526 0 77 34.474 77 77s-34.474 77-77 77S0 119.526 0 77 34.474 0 77 0z"/>
        <path id="prefix__ak" d="M77 0c42.526 0 77 34.474 77 77s-34.474 77-77 77S0 119.526 0 77"/>
        <path id="prefix__am" d="M77 0c42.526 0 77 34.474 77 77s-34.474 77-77 77S0 119.526 0 77 34.474 0 77 0z"/>
        <path id="prefix__ao" d="M77 0c42.526 0 77 34.474 77 77s-34.474 77-77 77S0 119.526 0 77"/>
        <path id="prefix__aq" d="M77 0c42.526 0 77 34.474 77 77s-34.474 77-77 77S0 119.526 0 77 34.474 0 77 0z"/>
        <path id="prefix__as" d="M77 0c42.526 0 77 34.474 77 77s-34.474 77-77 77S0 119.526 0 77"/>
        <path id="prefix__au" d="M77 0c42.526 0 77 34.474 77 77s-34.474 77-77 77S0 119.526 0 77 34.474 0 77 0z"/>
        <path id="prefix__aw" d="M77 0c42.526 0 77 34.474 77 77s-34.474 77-77 77S0 119.526 0 77"/>
        <path id="prefix__ay" d="M77 0c42.526 0 77 34.474 77 77s-34.474 77-77 77S0 119.526 0 77 34.474 0 77 0z"/>
        <path id="prefix__aA" d="M77 0c42.526 0 77 34.474 77 77s-34.474 77-77 77S0 119.526 0 77"/>
        <path id="prefix__aC" d="M77 0c42.526 0 77 34.474 77 77s-34.474 77-77 77S0 119.526 0 77 34.474 0 77 0z"/>
        <path id="prefix__aE" d="M77 0c42.526 0 77 34.474 77 77s-34.474 77-77 77S0 119.526 0 77"/>
        <path id="prefix__aG" d="M77 0c42.526 0 77 34.474 77 77s-34.474 77-77 77S0 119.526 0 77 34.474 0 77 0z"/>
        <path id="prefix__aI" d="M77 0c42.526 0 77 34.474 77 77s-34.474 77-77 77S0 119.526 0 77 34.474 0 77 0z"/>
        <path id="prefix__aK" d="M77 0c42.526 0 77 34.474 77 77s-34.474 77-77 77S0 119.526 0 77"/>
        <path id="prefix__aM" d="M77 0c42.526 0 77 34.474 77 77s-34.474 77-77 77S0 119.526 0 77 34.474 0 77 0z"/>
        <path id="prefix__aO" d="M77 0c42.526 0 77 34.474 77 77s-34.474 77-77 77S0 119.526 0 77"/>
        <path id="prefix__aQ" d="M77 0c42.526 0 77 34.474 77 77s-34.474 77-77 77S0 119.526 0 77 34.474 0 77 0z"/>
        <path id="prefix__aS" d="M77 0c42.526 0 77 34.474 77 77s-34.474 77-77 77S0 119.526 0 77"/>
        <path id="prefix__aU" d="M77 0c42.526 0 77 34.474 77 77s-34.474 77-77 77S0 119.526 0 77 34.474 0 77 0z"/>
        <path id="prefix__aW" d="M77 0c42.526 0 77 34.474 77 77s-34.474 77-77 77S0 119.526 0 77"/>
        <path id="prefix__aY" d="M77 0c42.526 0 77 34.474 77 77s-34.474 77-77 77S0 119.526 0 77"/>
        <path id="prefix__ba" d="M77 0c42.526 0 77 34.474 77 77s-34.474 77-77 77S0 119.526 0 77"/>
        <path id="prefix__bc" d="M77 0c42.526 0 77 34.474 77 77s-34.474 77-77 77S0 119.526 0 77"/>
        <path id="prefix__be" d="M77 0c42.526 0 77 34.474 77 77s-34.474 77-77 77S0 119.526 0 77"/>
        <path id="prefix__bg" d="M77 0c42.526 0 77 34.474 77 77s-34.474 77-77 77S0 119.526 0 77"/>
        <path id="prefix__bi" d="M77 0c42.526 0 77 34.474 77 77s-34.474 77-77 77S0 119.526 0 77"/>
        <path id="prefix__bk" d="M77 0c42.526 0 77 34.474 77 77s-34.474 77-77 77S0 119.526 0 77"/>
        <path id="prefix__bm" d="M77 0c42.526 0 77 34.474 77 77s-34.474 77-77 77S0 119.526 0 77 34.474 0 77 0z"/>
        <path id="prefix__bo" d="M77 0c42.526 0 77 34.474 77 77s-34.474 77-77 77S0 119.526 0 77"/>
        <path id="prefix__bq" d="M77 0c42.526 0 77 34.474 77 77s-34.474 77-77 77S0 119.526 0 77 34.474 0 77 0z"/>
        <path id="prefix__bs" d="M77 0c42.526 0 77 34.474 77 77s-34.474 77-77 77S0 119.526 0 77"/>
        <path id="prefix__bu" d="M77 0c42.526 0 77 34.474 77 77s-34.474 77-77 77S0 119.526 0 77 34.474 0 77 0z"/>
        <path id="prefix__bw" d="M77 0c42.526 0 77 34.474 77 77s-34.474 77-77 77S0 119.526 0 77"/>
        <path id="prefix__by" d="M77 0c42.526 0 77 34.474 77 77s-34.474 77-77 77S0 119.526 0 77 34.474 0 77 0z"/>
        <path id="prefix__bA" d="M77 0c42.526 0 77 34.474 77 77s-34.474 77-77 77S0 119.526 0 77"/>
        <path id="prefix__bC" d="M77 0c42.526 0 77 34.474 77 77s-34.474 77-77 77S0 119.526 0 77 34.474 0 77 0z"/>
        <path id="prefix__bE" d="M77 0c42.526 0 77 34.474 77 77s-34.474 77-77 77S0 119.526 0 77"/>
        <path id="prefix__bG" d="M77 0c42.526 0 77 34.474 77 77s-34.474 77-77 77S0 119.526 0 77 34.474 0 77 0z"/>
        <path id="prefix__bI" d="M77 0c42.526 0 77 34.474 77 77s-34.474 77-77 77S0 119.526 0 77"/>
        <path id="prefix__bK" d="M77 0c42.526 0 77 34.474 77 77s-34.474 77-77 77S0 119.526 0 77 34.474 0 77 0z"/>
        <path id="prefix__bM" d="M77 0c42.526 0 77 34.474 77 77s-34.474 77-77 77S0 119.526 0 77"/>
        <path id="prefix__bO" d="M77 0c42.526 0 77 34.474 77 77s-34.474 77-77 77S0 119.526 0 77 34.474 0 77 0z"/>
        <path id="prefix__bQ" d="M77 0c42.526 0 77 34.474 77 77s-34.474 77-77 77S0 119.526 0 77"/>
        <path id="prefix__bS" d="M77 0c42.526 0 77 34.474 77 77s-34.474 77-77 77S0 119.526 0 77 34.474 0 77 0z"/>
        <path id="prefix__bU" d="M77 0c42.526 0 77 34.474 77 77s-34.474 77-77 77S0 119.526 0 77"/>
        <path id="prefix__bW" d="M77 0c42.526 0 77 34.474 77 77s-34.474 77-77 77S0 119.526 0 77 34.474 0 77 0z"/>
        <path id="prefix__bY" d="M77 0c42.526 0 77 34.474 77 77s-34.474 77-77 77S0 119.526 0 77"/>
        <path id="prefix__ca" d="M77 0c42.526 0 77 34.474 77 77s-34.474 77-77 77S0 119.526 0 77 34.474 0 77 0z"/>
        <path id="prefix__cc" d="M77 0c42.526 0 77 34.474 77 77s-34.474 77-77 77S0 119.526 0 77 34.474 0 77 0z"/>
        <path id="prefix__ce" d="M77 0c42.526 0 77 34.474 77 77s-34.474 77-77 77S0 119.526 0 77"/>
        <path id="prefix__cg" d="M77 0c42.526 0 77 34.474 77 77s-34.474 77-77 77S0 119.526 0 77 34.474 0 77 0z"/>
        <path id="prefix__ci" d="M77 0c42.526 0 77 34.474 77 77s-34.474 77-77 77S0 119.526 0 77"/>
        <path id="prefix__ck" d="M77 0c42.526 0 77 34.474 77 77s-34.474 77-77 77S0 119.526 0 77 34.474 0 77 0z"/>
        <path id="prefix__cm" d="M77 0c42.526 0 77 34.474 77 77s-34.474 77-77 77S0 119.526 0 77"/>
        <path id="prefix__co" d="M77 0c42.526 0 77 34.474 77 77s-34.474 77-77 77S0 119.526 0 77 34.474 0 77 0z"/>
        <path id="prefix__cq" d="M77 0c42.526 0 77 34.474 77 77s-34.474 77-77 77S0 119.526 0 77"/>
        <path id="prefix__cs" d="M77 0c42.526 0 77 34.474 77 77s-34.474 77-77 77S0 119.526 0 77"/>
        <path id="prefix__cu" d="M77 0c42.526 0 77 34.474 77 77s-34.474 77-77 77S0 119.526 0 77"/>
        <path id="prefix__cw" d="M77 0c42.526 0 77 34.474 77 77s-34.474 77-77 77S0 119.526 0 77"/>
        <path id="prefix__cy" d="M77 0c42.526 0 77 34.474 77 77s-34.474 77-77 77S0 119.526 0 77"/>
        <path id="prefix__cA" d="M77 0c42.526 0 77 34.474 77 77s-34.474 77-77 77S0 119.526 0 77"/>
        <path id="prefix__cC" d="M77 0c42.526 0 77 34.474 77 77s-34.474 77-77 77S0 119.526 0 77"/>
        <path id="prefix__cE" d="M77 0c42.526 0 77 34.474 77 77s-34.474 77-77 77S0 119.526 0 77"/>
        <path id="prefix__cG" d="M0.024 0.094L24.368 0.094 24.368 16.78 0.024 16.78z"/>
        <path id="prefix__cI" d="M77 0c42.526 0 77 34.474 77 77s-34.474 77-77 77S0 119.526 0 77 34.474 0 77 0z"/>
        <path id="prefix__cK" d="M77 0c42.526 0 77 34.474 77 77s-34.474 77-77 77S0 119.526 0 77"/>
        <path id="prefix__cM" d="M77 0c42.526 0 77 34.474 77 77s-34.474 77-77 77S0 119.526 0 77 34.474 0 77 0z"/>
        <path id="prefix__cO" d="M77 0c42.526 0 77 34.474 77 77s-34.474 77-77 77S0 119.526 0 77"/>
        <path id="prefix__cQ" d="M77 0c42.526 0 77 34.474 77 77s-34.474 77-77 77S0 119.526 0 77 34.474 0 77 0z"/>
        <path id="prefix__cS" d="M77 0c42.526 0 77 34.474 77 77s-34.474 77-77 77S0 119.526 0 77"/>
        <path id="prefix__cU" d="M77 0c42.526 0 77 34.474 77 77s-34.474 77-77 77S0 119.526 0 77 34.474 0 77 0z"/>
        <path id="prefix__cW" d="M77 0c42.526 0 77 34.474 77 77s-34.474 77-77 77S0 119.526 0 77"/>
        <path id="prefix__cY" d="M77 0c42.526 0 77 34.474 77 77s-34.474 77-77 77S0 119.526 0 77 34.474 0 77 0z"/>
        <path id="prefix__da" d="M77 0c42.526 0 77 34.474 77 77s-34.474 77-77 77S0 119.526 0 77"/>
        <path id="prefix__dc" d="M77 0c42.526 0 77 34.474 77 77s-34.474 77-77 77S0 119.526 0 77 34.474 0 77 0z"/>
        <path id="prefix__de" d="M77 0c42.526 0 77 34.474 77 77s-34.474 77-77 77S0 119.526 0 77"/>
        <path id="prefix__dg" d="M77 0c42.526 0 77 34.474 77 77s-34.474 77-77 77S0 119.526 0 77 34.474 0 77 0z"/>
        <path id="prefix__di" d="M77 0c42.526 0 77 34.474 77 77s-34.474 77-77 77S0 119.526 0 77"/>
        <path id="prefix__dk" d="M77 0c42.526 0 77 34.474 77 77s-34.474 77-77 77S0 119.526 0 77 34.474 0 77 0z"/>
        <path id="prefix__dm" d="M77 0c42.526 0 77 34.474 77 77s-34.474 77-77 77S0 119.526 0 77 34.474 0 77 0z"/>
        <path id="prefix__do" d="M77 0c42.526 0 77 34.474 77 77s-34.474 77-77 77S0 119.526 0 77"/>
        <path id="prefix__dq" d="M77 0c42.526 0 77 34.474 77 77s-34.474 77-77 77S0 119.526 0 77 34.474 0 77 0z"/>
        <path id="prefix__ds" d="M77 0c42.526 0 77 34.474 77 77s-34.474 77-77 77S0 119.526 0 77"/>
        <path id="prefix__du" d="M77 0c42.526 0 77 34.474 77 77s-34.474 77-77 77S0 119.526 0 77 34.474 0 77 0z"/>
        <path id="prefix__dw" d="M77 0c42.526 0 77 34.474 77 77s-34.474 77-77 77S0 119.526 0 77"/>
        <path id="prefix__dy" d="M77 0c42.526 0 77 34.474 77 77s-34.474 77-77 77S0 119.526 0 77"/>
        <path id="prefix__dA" d="M77 0c42.526 0 77 34.474 77 77s-34.474 77-77 77S0 119.526 0 77"/>
        <path id="prefix__dC" d="M77 0c42.526 0 77 34.474 77 77s-34.474 77-77 77S0 119.526 0 77"/>
        <path id="prefix__dE" d="M77 0c42.526 0 77 34.474 77 77s-34.474 77-77 77S0 119.526 0 77"/>
        <path id="prefix__dG" d="M77 0c42.526 0 77 34.474 77 77s-34.474 77-77 77S0 119.526 0 77"/>
        <path id="prefix__dI" d="M77 0c42.526 0 77 34.474 77 77s-34.474 77-77 77S0 119.526 0 77"/>
        <path id="prefix__dK" d="M77 0c42.526 0 77 34.474 77 77s-34.474 77-77 77S0 119.526 0 77 34.474 0 77 0z"/>
        <path id="prefix__dM" d="M77 0c42.526 0 77 34.474 77 77s-34.474 77-77 77S0 119.526 0 77"/>
        <path id="prefix__dO" d="M77 0c42.526 0 77 34.474 77 77s-34.474 77-77 77S0 119.526 0 77 34.474 0 77 0z"/>
        <path id="prefix__dQ" d="M77 0c42.526 0 77 34.474 77 77s-34.474 77-77 77S0 119.526 0 77"/>
        <path id="prefix__dS" d="M77 0c42.526 0 77 34.474 77 77s-34.474 77-77 77S0 119.526 0 77 34.474 0 77 0z"/>
        <path id="prefix__dU" d="M77 0c42.526 0 77 34.474 77 77s-34.474 77-77 77S0 119.526 0 77"/>
        <path id="prefix__dW" d="M77 0c42.526 0 77 34.474 77 77s-34.474 77-77 77S0 119.526 0 77 34.474 0 77 0z"/>
        <path id="prefix__dY" d="M77 0c42.526 0 77 34.474 77 77s-34.474 77-77 77S0 119.526 0 77"/>
        <path id="prefix__ea" d="M77 0c42.526 0 77 34.474 77 77s-34.474 77-77 77S0 119.526 0 77 34.474 0 77 0z"/>
        <path id="prefix__ec" d="M77 0c42.526 0 77 34.474 77 77s-34.474 77-77 77S0 119.526 0 77"/>
        <path id="prefix__ee" d="M77 0c42.526 0 77 34.474 77 77s-34.474 77-77 77S0 119.526 0 77 34.474 0 77 0z"/>
        <path id="prefix__eg" d="M77 0c42.526 0 77 34.474 77 77s-34.474 77-77 77S0 119.526 0 77"/>
        <path id="prefix__ei" d="M77 0c42.526 0 77 34.474 77 77s-34.474 77-77 77S0 119.526 0 77 34.474 0 77 0z"/>
        <path id="prefix__ek" d="M77 0c42.526 0 77 34.474 77 77s-34.474 77-77 77S0 119.526 0 77"/>
        <path id="prefix__em" d="M77 0c42.526 0 77 34.474 77 77s-34.474 77-77 77S0 119.526 0 77"/>
        <path id="prefix__eo" d="M77 0c42.526 0 77 34.474 77 77s-34.474 77-77 77S0 119.526 0 77"/>
        <path id="prefix__eq" d="M77 0c42.526 0 77 34.474 77 77s-34.474 77-77 77S0 119.526 0 77"/>
        <path id="prefix__es" d="M77 0c42.526 0 77 34.474 77 77s-34.474 77-77 77S0 119.526 0 77"/>
        <path id="prefix__eu" d="M77 0c42.526 0 77 34.474 77 77s-34.474 77-77 77S0 119.526 0 77"/>
        <path id="prefix__ew" d="M77 0c42.526 0 77 34.474 77 77s-34.474 77-77 77S0 119.526 0 77"/>
    </defs>
    <g fill="none" fill-rule="evenodd">
        <path fill="#F9E0BB" d="M154 77c0 42.526-34.474 77-77 77S0 119.526 0 77 34.474 0 77 0s77 34.474 77 77"/>
        <g>
            <mask id="prefix__b" fill="#fff">
                <use xlink:href="#prefix__a"/>
            </mask>
            <path fill="#358ECD" d="M17.948 162.208h87.945s13.216-40.123-.086-43.517c-13.297-3.394-21.354-4.446-21.354-4.446-.86-.182-1.725-.348-2.584-.505-1.568-.289-3.136-.541-4.71-.759-10.514-1.457-21.181-1.386-31.671.223-1.659.247-3.318.54-4.967.87-.293.06-.592.116-.88.181 0 0-3.146.709-21.83 4.548-18.678 3.838.137 43.405.137 43.405" mask="url(#prefix__b)"/>
            <mask id="prefix__d" fill="#fff">
                <use xlink:href="#prefix__c"/>
            </mask>
            <path fill="#358ECD" d="M53.606 132.206l.217.08c4.572 1.579 9.883 1.599 14.49.061l.572-.192c7.106-2.372 11.097-7.946 9.691-13.53l-1.416-5.644c-10.515-1.457-21.182-1.386-31.672.222l-1.391 5.539c-1.386 5.533 2.509 11.056 9.509 13.464" mask="url(#prefix__d)"/>
            <mask id="prefix__f" fill="#fff">
                <use xlink:href="#prefix__e"/>
            </mask>
            <path fill="#DBA68A" d="M56.478 125.64l.137.066c2.873 1.366 6.211 1.386 9.104.056l.36-.167c4.465-2.053 6.974-6.873 6.089-11.704l-1.73-9.483-1.634-8.942H53.89l-1.649 9.013-1.735 9.514c-.87 4.784 1.578 9.564 5.973 11.648" mask="url(#prefix__f)"/>
            <mask id="prefix__h" fill="#fff">
                <use xlink:href="#prefix__g"/>
            </mask>
            <path fill="#4D280D" d="M56.478 125.64l.137.066c2.873 1.366 6.211 1.386 9.104.056l.36-.167c4.465-2.053 6.974-6.873 6.089-11.704l-1.73-9.483-1.634-8.942H53.89l-1.649 9.013-1.735 9.514c-.87 4.784 1.578 9.564 5.973 11.648" mask="url(#prefix__h)"/>
            <g transform="translate(51.128 95.326)">
                <mask id="prefix__j" fill="#fff">
                    <use xlink:href="#prefix__i"/>
                </mask>
                <path fill="#603813" d="M.14 14.487c10.75-3.69 16.216-9.278 19.17-10.543L17.676.14H2.761L.139 14.487z" mask="url(#prefix__j)"/>
            </g>
            <mask id="prefix__l" fill="#fff">
                <use xlink:href="#prefix__k"/>
            </mask>
            <path fill="#4D280D" d="M31 63.716c-.125 18.143 13.33 37.162 30.089 37.278 16.759.116 30.476-18.713 30.602-36.857.126-18.143-4.38-34.793-30.103-34.972C35.865 28.987 31.127 45.572 31 63.715" mask="url(#prefix__l)"/>
            <mask id="prefix__n" fill="#fff">
                <use xlink:href="#prefix__m"/>
            </mask>
            <path fill="#000" d="M26.79 44.047c.026 8.976.264 15.216 4.052 15.708 4.632.601 9.45-5.642 10.803-14.226 1.353-8.584-1.29-16.132-5.904-16.859-4.614-.726-8.974 6.687-8.95 15.377" mask="url(#prefix__n)"/>
            <mask id="prefix__p" fill="#fff">
                <use xlink:href="#prefix__o"/>
            </mask>
            <path fill="#000" d="M96.588 44.047c-.025 8.976-.262 15.216-4.051 15.708-4.632.601-9.45-5.642-10.803-14.226-1.352-8.584 1.291-16.132 5.905-16.859 4.613-.726 8.974 6.687 8.95 15.377" mask="url(#prefix__p)"/>
            <mask id="prefix__r" fill="#fff">
                <use xlink:href="#prefix__q"/>
            </mask>
            <path fill="#000" d="M91.193 26.345c-.713 5.35-4.325 12.22-18.376 13.318-12.94 1.012-36.428 4.024-40.125-3.371-3.204-6.407 6.406-20.906 22.085-18.377 6.51 1.05 21.749 5.226 30.01-4.046 5.058 3.372 7.08 7.418 6.406 12.476" mask="url(#prefix__r)"/>
            <mask id="prefix__t" fill="#fff">
                <use xlink:href="#prefix__s"/>
            </mask>
            <path fill="#4D280D" d="M26.957 62.994c.47 3.543 2.816 7.873 4.69 7.625 1.874-.249 3.012-3.322 2.543-6.866-.47-3.543-2.369-6.214-4.243-5.966-1.873.248-3.46 1.664-2.99 5.207" mask="url(#prefix__t)"/>
            <mask id="prefix__v" fill="#fff">
                <use xlink:href="#prefix__u"/>
            </mask>
            <path fill="#DBA68A" d="M95.285 63.471c-.342 3.558-2.533 7.969-4.415 7.787-1.88-.18-3.128-3.212-2.786-6.77.343-3.557 2.145-6.295 4.027-6.114 1.88.181 3.517 1.54 3.174 5.097" mask="url(#prefix__v)"/>
            <g stroke="#CF9E81" stroke-linecap="round" stroke-linejoin="round" stroke-width="1.314">
                <path d="M2.727.067l5.918 3.324s-5.68 2.022-6.49 2.346M7.997 3.229L.133 3.229" transform="translate(44.968 59.752)"/>
            </g>
            <g stroke="#CF9E81" stroke-linecap="round" stroke-linejoin="round" stroke-width="1.314">
                <path d="M5.976.067L.058 3.391s5.68 2.022 6.491 2.346M.706 3.229L8.57 3.229" transform="translate(68.222 59.752)"/>
            </g>
            <g transform="translate(53.746 81.774)">
                <mask id="prefix__x" fill="#fff">
                    <use xlink:href="#prefix__w"/>
                </mask>
                <path fill="#F8D1D7" d="M15.275 4.766c0 2.576-3.385 4.665-7.56 4.665-4.177 0-7.562-2.089-7.562-4.665C.153 2.189 3.538.1 7.714.1s7.561 2.089 7.561 4.666" mask="url(#prefix__x)"/>
            </g>
            <mask id="prefix__z" fill="#fff">
                <use xlink:href="#prefix__y"/>
            </mask>
            <path fill="#F1F1F2" d="M70.919 72.817l24.2 21.309s-6.92-.2-12.165 2.073c-4.745 2.057-6.075 5.832-12.088 8.439-6.848 2.968-8.908-.673-11.749.558-1.506.653-4.62 6.537-4.62 6.537l-1.524-31.115c-.058-1.184.182-2.364.698-3.431 2.315-4.788 7.606-7.37 12.805-6.249l1.253.27c1.183.256 2.282.81 3.19 1.61" mask="url(#prefix__z)"/>
            <g transform="translate(56.518 78.54)">
                <mask id="prefix__B" fill="#fff">
                    <use xlink:href="#prefix__A"/>
                </mask>
                <path fill="#D5D6D7" d="M.08.039c.49 1.787.926 3.586 1.342 5.388.213.9.406 1.805.609 2.707l.578 2.713.548 2.72c.172.908.355 1.815.517 2.726.334 1.82.65 3.642.909 5.477-.49-1.787-.926-3.585-1.342-5.388-.213-.9-.406-1.804-.609-2.707l-.577-2.713-.547-2.72c-.173-.908-.355-1.815-.517-2.726C.657 3.697.341 1.874.081.04" mask="url(#prefix__B)"/>
            </g>
            <g transform="translate(65.142 82.544)">
                <mask id="prefix__D" fill="#fff">
                    <use xlink:href="#prefix__C"/>
                </mask>
                <path fill="#D5D6D7" d="M.13.116C.861 1.219 1.544 2.349 2.21 3.488c.337.567.656 1.143.984 1.715l.956 1.731.93 1.746c.3.587.61 1.169.9 1.76.592 1.18 1.167 2.368 1.691 3.583-.732-1.103-1.414-2.233-2.079-3.372-.337-.567-.656-1.144-.984-1.716l-.955-1.731-.93-1.746c-.3-.587-.609-1.169-.9-1.76C1.23 2.518.656 1.33.13.116" mask="url(#prefix__D)"/>
            </g>
            <g transform="translate(65.45 74.382)">
                <mask id="prefix__F" fill="#fff">
                    <use xlink:href="#prefix__E"/>
                </mask>
                <path fill="#D5D6D7" d="M.064.125c1.03.828 2.021 1.697 2.999 2.579.492.437.97.89 1.456 1.334l1.434 1.358 1.413 1.379c.464.468.935.927 1.391 1.402.92.943 1.827 1.9 2.694 2.897-1.03-.828-2.022-1.696-3-2.578-.493-.437-.97-.89-1.456-1.335L5.561 5.803 4.15 4.423c-.464-.467-.935-.927-1.391-1.402C1.838 2.08.931 1.122.064.125" mask="url(#prefix__F)"/>
            </g>
            <mask id="prefix__H" fill="#fff">
                <use xlink:href="#prefix__G"/>
            </mask>
            <path fill="#4D280D" d="M79.661 91.542c.945 6.247-2.412 11.936-7.497 12.704-3.125.473-6.177-1.023-8.283-3.697-1.32-1.677-2.27-3.816-2.634-6.224-.945-6.248 2.412-11.936 7.497-12.705 5.085-.768 9.973 3.674 10.917 9.922" mask="url(#prefix__H)"/>
            <mask id="prefix__J" fill="#fff">
                <use xlink:href="#prefix__I"/>
            </mask>
            <path fill="#4D280D" d="M69.38 108.57l-4.97-7.658L79.226 89.57l1.736 13.426c.157 1.213.72 2.338 1.598 3.191l26.444 29.12-8.88 20.577-30.744-47.312z" mask="url(#prefix__J)"/>
            <mask id="prefix__L" fill="#fff">
                <use xlink:href="#prefix__K"/>
            </mask>
            <path fill="#6FAFDB" d="M104.435 161.423l-31.882-42.425c-.56-.849 13.823-13.519 14.551-12.537l24.503 28.688-1.703 11.29-5.469 14.984z" mask="url(#prefix__L)"/>
            <g transform="translate(69.3 50.358)">
                <mask id="prefix__N" fill="#fff">
                    <use xlink:href="#prefix__M"/>
                </mask>
                <path fill="#FFF" d="M52.154 34.54L6.7 48.74l-.009-.021h-.005c-.42.12-.864.185-1.322.192C2.49 48.968.118 46.68.067 43.806c-.02-1.24.616-2.249 1.104-3.292C2.215 38.28 17.712.063 17.712.063L52.154 34.54z" mask="url(#prefix__N)"/>
            </g>
            <mask id="prefix__P" fill="#fff">
                <use xlink:href="#prefix__O"/>
            </mask>
            <path fill="#FFF" d="M140.432 54.97c-2.054-15.033-15.905-25.553-30.937-23.499-15.032 2.054-25.553 15.906-23.499 30.938 2.055 15.032 15.906 25.552 30.938 23.498 15.032-2.054 25.553-15.905 23.498-30.937" mask="url(#prefix__P)"/>
            <g transform="translate(118.58 59.906)">
                <mask id="prefix__R" fill="#fff">
                    <use xlink:href="#prefix__Q"/>
                </mask>
                <path fill="#064C7C" d="M12.451 9.38c-1.376 2.346-4.486 3.838-6.988 3.488C2.583 12.465.038 9.775.015 6.827-.005 4.217 1.6 1.637 4.012.553c1.77-.797 3.995-.717 5.696.226 2.017 1.118 3.316 3.527 3.447 5.804.059 1.011-.212 1.96-.704 2.798" mask="url(#prefix__R)"/>
            </g>
            <mask id="prefix__T" fill="#fff">
                <use xlink:href="#prefix__S"/>
            </mask>
            <path fill="#358ECD" d="M121.454 61.206L121.081 61.455 120.46 60.57 120.585 60.487z" mask="url(#prefix__T)"/>
            <mask id="prefix__V" fill="#fff">
                <use xlink:href="#prefix__U"/>
            </mask>
            <path fill="#358ECD" d="M119.953 60.195c.06-.206.277-.324.483-.263.206.06.324.277.264.483-.06.206-.277.324-.483.263-.206-.06-.324-.276-.264-.483" mask="url(#prefix__V)"/>
            <mask id="prefix__X" fill="#fff">
                <use xlink:href="#prefix__W"/>
            </mask>
            <path fill="#358ECD" d="M123.866 60.208L123.304 60.306 123.443 58.471 123.63 58.439z" mask="url(#prefix__X)"/>
            <mask id="prefix__Z" fill="#fff">
                <use xlink:href="#prefix__Y"/>
            </mask>
            <path fill="#358ECD" d="M123.09 57.742c.177-.208.489-.235.697-.058.209.176.235.488.059.697-.177.208-.489.234-.697.058-.209-.176-.235-.488-.059-.697" mask="url(#prefix__Z)"/>
            <mask id="prefix__ab" fill="#fff">
                <use xlink:href="#prefix__aa"/>
            </mask>
            <path fill="#358ECD" d="M126.269 60.398L125.933 60.315 126.224 59.592 126.335 59.62z" mask="url(#prefix__ab)"/>
            <mask id="prefix__ad" fill="#fff">
                <use xlink:href="#prefix__ac"/>
            </mask>
            <path fill="#358ECD" d="M126.184 58.966c.178-.087.392-.013.479.165.086.178.012.392-.165.478-.178.087-.392.013-.479-.165-.087-.178-.013-.392.165-.478" mask="url(#prefix__ad)"/>
            <mask id="prefix__af" fill="#fff">
                <use xlink:href="#prefix__ae"/>
            </mask>
            <path fill="#358ECD" d="M128.266 62.049L127.815 61.699 129.418 60.135 129.569 60.251z" mask="url(#prefix__af)"/>
            <mask id="prefix__ah" fill="#fff">
                <use xlink:href="#prefix__ag"/>
            </mask>
            <path fill="#358ECD" d="M129.72 59.383c.273-.01.502.203.512.476.01.273-.202.502-.475.512-.273.01-.503-.203-.513-.476-.01-.272.203-.502.476-.512" mask="url(#prefix__ah)"/>
            <mask id="prefix__aj" fill="#fff">
                <use xlink:href="#prefix__ai"/>
            </mask>
            <path fill="#358ECD" d="M130.136 63.511L129.926 63.123 131.002 62.876 131.073 63.005z" mask="url(#prefix__aj)"/>
            <mask id="prefix__al" fill="#fff">
                <use xlink:href="#prefix__ak"/>
            </mask>
            <path fill="#358ECD" d="M131.482 62.4c.2.08.299.308.219.509-.08.2-.307.298-.508.218-.2-.08-.299-.307-.219-.508.08-.2.307-.298.508-.218" mask="url(#prefix__al)"/>
            <mask id="prefix__an" fill="#fff">
                <use xlink:href="#prefix__am"/>
            </mask>
            <path fill="#358ECD" d="M130.789 66.014L130.743 65.445 132.715 65.23 132.73 65.419z" mask="url(#prefix__an)"/>
            <mask id="prefix__ap" fill="#fff">
                <use xlink:href="#prefix__ao"/>
            </mask>
            <path fill="#358ECD" d="M133.474 64.946c.191.195.188.508-.007.7-.194.19-.508.188-.699-.007-.191-.195-.188-.508.006-.7.195-.19.508-.188.7.007" mask="url(#prefix__ap)"/>
            <mask id="prefix__ar" fill="#fff">
                <use xlink:href="#prefix__aq"/>
            </mask>
            <path fill="#358ECD" d="M119.378 68.162L119.583 68.695 117.4 69.201 117.332 69.023z" mask="url(#prefix__ar)"/>
            <mask id="prefix__at" fill="#fff">
                <use xlink:href="#prefix__as"/>
            </mask>
            <path fill="#358ECD" d="M116.753 69.687c-.239-.133-.325-.434-.192-.673.133-.238.434-.324.673-.19.239.132.324.433.191.672-.133.239-.434.324-.672.191" mask="url(#prefix__at)"/>
            <mask id="prefix__av" fill="#fff">
                <use xlink:href="#prefix__au"/>
            </mask>
            <path fill="#358ECD" d="M118.832 65.825L118.81 66.266 117.672 66.013 117.68 65.866z" mask="url(#prefix__av)"/>
            <mask id="prefix__ax" fill="#fff">
                <use xlink:href="#prefix__aw"/>
            </mask>
            <path fill="#358ECD" d="M117.091 66.15c-.13-.173-.096-.418.077-.548.172-.13.417-.096.547.076.13.173.096.418-.076.548-.172.13-.417.096-.548-.077" mask="url(#prefix__ax)"/>
            <mask id="prefix__az" fill="#fff">
                <use xlink:href="#prefix__ay"/>
            </mask>
            <path fill="#358ECD" d="M119.753 63.195L119.496 63.705 117.699 62.866 117.785 62.696z" mask="url(#prefix__az)"/>
            <mask id="prefix__aB" fill="#fff">
                <use xlink:href="#prefix__aA"/>
            </mask>
            <path fill="#358ECD" d="M116.904 62.715c-.063-.266.102-.532.368-.595.266-.062.532.103.595.368.062.266-.103.533-.369.595-.266.063-.532-.102-.594-.368" mask="url(#prefix__aB)"/>
            <mask id="prefix__aD" fill="#fff">
                <use xlink:href="#prefix__aC"/>
            </mask>
            <path fill="#358ECD" d="M130.408 68.396L130.521 68.07 131.827 68.425 131.789 68.533z" mask="url(#prefix__aD)"/>
            <mask id="prefix__aF" fill="#fff">
                <use xlink:href="#prefix__aE"/>
            </mask>
            <path fill="#358ECD" d="M132.453 68.424c.078.206-.026.437-.233.514-.206.078-.436-.026-.514-.233-.078-.206.026-.436.233-.514.206-.078.436.026.514.233" mask="url(#prefix__aF)"/>
            <mask id="prefix__aH" fill="#fff">
                <use xlink:href="#prefix__aG"/>
            </mask>
            <path fill="#358ECD" d="M129.04 70.548L129.315 70.254 130.472 71.76 130.38 71.858z" mask="url(#prefix__aH)"/>
            <mask id="prefix__aJ" fill="#fff">
                <use xlink:href="#prefix__aI"/>
            </mask>
            <path fill="#358ECD" d="M126.894 71.933L127.259 71.778 127.519 72.723 127.397 72.775z" mask="url(#prefix__aJ)"/>
            <mask id="prefix__aL" fill="#fff">
                <use xlink:href="#prefix__aK"/>
            </mask>
            <path fill="#358ECD" d="M127.873 73.16c-.086.17-.293.236-.462.15-.17-.086-.237-.293-.15-.462.086-.169.293-.236.462-.15.169.086.236.293.15.462" mask="url(#prefix__aL)"/>
            <mask id="prefix__aN" fill="#fff">
                <use xlink:href="#prefix__aM"/>
            </mask>
            <path fill="#358ECD" d="M124.369 72.37l.57.008-.167 1.843c0 .003-.002.004-.004.004l-.183-.002c-.002 0-.004-.002-.004-.004l-.212-1.848z" mask="url(#prefix__aN)"/>
            <mask id="prefix__aP" fill="#fff">
                <use xlink:href="#prefix__aO"/>
            </mask>
            <path fill="#358ECD" d="M124.984 75.007c-.212.172-.523.14-.696-.071-.172-.212-.14-.523.071-.696.212-.173.523-.14.696.07.173.213.14.524-.071.697" mask="url(#prefix__aP)"/>
            <mask id="prefix__aR" fill="#fff">
                <use xlink:href="#prefix__aQ"/>
            </mask>
            <path fill="#358ECD" d="M122.06 71.662L122.429 71.83 121.665 72.673 121.542 72.617z" mask="url(#prefix__aR)"/>
            <mask id="prefix__aT" fill="#fff">
                <use xlink:href="#prefix__aS"/>
            </mask>
            <path fill="#358ECD" d="M121.578 73.242c-.187.051-.38-.059-.431-.246-.052-.187.058-.38.245-.432.187-.05.38.059.432.246.051.187-.059.38-.246.432" mask="url(#prefix__aT)"/>
            <mask id="prefix__aV" fill="#fff">
                <use xlink:href="#prefix__aU"/>
            </mask>
            <path fill="#358ECD" d="M119.959 70.147L120.338 70.573 119.171 71.749 119.045 71.606z" mask="url(#prefix__aV)"/>
            <mask id="prefix__aX" fill="#fff">
                <use xlink:href="#prefix__aW"/>
            </mask>
            <path fill="#358ECD" d="M118.832 72.283c-.218-.033-.368-.236-.335-.454.032-.218.235-.368.453-.336.218.033.369.236.336.454-.032.218-.235.368-.454.336" mask="url(#prefix__aX)"/>
            <mask id="prefix__aZ" fill="#fff">
                <use xlink:href="#prefix__aY"/>
            </mask>
            <path fill="#358ECD" d="M130.527 69.137c-1.338 2.281-4.362 3.731-6.795 3.39-2.8-.39-5.275-3.007-5.297-5.873-.02-2.538 1.54-5.047 3.886-6.102 1.722-.774 3.885-.696 5.539.221 1.961 1.087 3.224 3.429 3.352 5.643.057.984-.206 1.906-.685 2.721" mask="url(#prefix__aZ)"/>
            <mask id="prefix__bb" fill="#fff">
                <use xlink:href="#prefix__ba"/>
            </mask>
            <path fill="#BCDAEE" d="M121.224 66.007c.37-.217.844-.093 1.06.276.217.369.093.843-.276 1.06-.369.216-.843.092-1.06-.277-.216-.369-.092-.843.276-1.06" mask="url(#prefix__bb)"/>
            <g>
                <mask id="prefix__bd" fill="#fff">
                    <use xlink:href="#prefix__bc"/>
                </mask>
                <path fill="#BCDAEE" d="M127.862 63.272c.365-.014.672.27.686.636.013.365-.272.671-.637.685-.365.014-.671-.271-.685-.636-.014-.365.271-.672.636-.685" mask="url(#prefix__bd)"/>
            </g>
            <g>
                <mask id="prefix__bf" fill="#fff">
                    <use xlink:href="#prefix__be"/>
                </mask>
                <path fill="#BCDAEE" d="M124.363 69.09c.177-.007.325.13.332.308.006.176-.131.325-.308.332-.177.006-.326-.132-.333-.309-.006-.176.132-.325.309-.332" mask="url(#prefix__bf)"/>
            </g>
            <g>
                <mask id="prefix__bh" fill="#fff">
                    <use xlink:href="#prefix__bg"/>
                </mask>
                <path fill="#BCDAEE" d="M123.934 62.17c.21.107.292.364.184.574-.107.21-.364.292-.574.184-.21-.108-.292-.365-.184-.574.108-.21.365-.292.574-.184" mask="url(#prefix__bh)"/>
            </g>
            <g>
                <mask id="prefix__bj" fill="#fff">
                    <use xlink:href="#prefix__bi"/>
                </mask>
                <path fill="#BCDAEE" d="M128.026 68.238c.008.236-.175.433-.41.442-.236.009-.434-.175-.443-.41-.008-.235.175-.433.41-.442.236-.009.434.175.443.41" mask="url(#prefix__bj)"/>
            </g>
            <g>
                <mask id="prefix__bl" fill="#fff">
                    <use xlink:href="#prefix__bk"/>
                </mask>
                <path fill="#358ECD" d="M131.22 72.1c-.015.273-.249.482-.521.467-.273-.015-.482-.249-.467-.521.015-.273.249-.482.522-.467.272.016.48.249.466.522" mask="url(#prefix__bl)"/>
            </g>
            <path fill="#064C7C" d="M110.505 77.45c-1.452.422-3.279-.162-4.157-1.259-1.01-1.262-1.012-3.322.104-4.523.989-1.063 2.623-1.493 4.012-1.01 1.02.354 1.889 1.236 2.217 2.266.388 1.222-.006 2.692-.823 3.663-.362.431-.834.711-1.353.862"/>
            <g>
                <mask id="prefix__bn" fill="#fff">
                    <use xlink:href="#prefix__bm"/>
                </mask>
                <path fill="#358ECD" d="M109.719 70.525L109.473 70.483 109.559 69.889 109.641 69.903z" mask="url(#prefix__bn)"/>
            </g>
            <g>
                <mask id="prefix__bp" fill="#fff">
                    <use xlink:href="#prefix__bo"/>
                </mask>
                <path fill="#358ECD" d="M109.498 69.544c.103-.06.235-.026.295.078.06.103.026.235-.077.295-.104.06-.236.026-.296-.078-.06-.103-.026-.235.078-.295" mask="url(#prefix__bp)"/>
            </g>
            <g>
                <mask id="prefix__br" fill="#fff">
                    <use xlink:href="#prefix__bq"/>
                </mask>
                <path fill="#358ECD" d="M111.075 71.043L110.81 70.868 111.567 70.179 111.655 70.237z" mask="url(#prefix__br)"/>
            </g>
            <g>
                <mask id="prefix__bt" fill="#fff">
                    <use xlink:href="#prefix__bs"/>
                </mask>
                <path fill="#358ECD" d="M111.703 69.75c.15-.017.287.091.304.242.017.151-.092.287-.243.304-.15.017-.287-.091-.304-.242-.017-.151.092-.287.243-.304" mask="url(#prefix__bt)"/>
            </g>
            <g>
                <mask id="prefix__bv" fill="#fff">
                    <use xlink:href="#prefix__bu"/>
                </mask>
                <path fill="#358ECD" d="M111.974 72.037L111.87 71.875 112.263 71.694 112.298 71.748z" mask="url(#prefix__bv)"/>
            </g>
            <g>
                <mask id="prefix__bx" fill="#fff">
                    <use xlink:href="#prefix__bw"/>
                </mask>
                <path fill="#358ECD" d="M112.487 71.426c.105.033.163.144.13.25-.033.104-.145.163-.25.13-.104-.033-.163-.145-.13-.25.033-.105.145-.163.25-.13" mask="url(#prefix__bx)"/>
            </g>
            <g>
                <mask id="prefix__bz" fill="#fff">
                    <use xlink:href="#prefix__by"/>
                </mask>
                <path fill="#358ECD" d="M112.151 73.467L112.102 73.154 113.348 73.133 113.364 73.238z" mask="url(#prefix__bz)"/>
            </g>
            <g>
                <mask id="prefix__bB" fill="#fff">
                    <use xlink:href="#prefix__bA"/>
                </mask>
                <path fill="#358ECD" d="M113.757 72.944c.114.1.125.274.025.389-.1.114-.273.125-.388.025-.114-.1-.125-.274-.025-.388.1-.114.273-.126.388-.026" mask="url(#prefix__bB)"/>
            </g>
            <g>
                <mask id="prefix__bD" fill="#fff">
                    <use xlink:href="#prefix__bC"/>
                </mask>
                <path fill="#358ECD" d="M112.349 74.773L112.412 74.535 112.942 74.846 112.92 74.925z" mask="url(#prefix__bD)"/>
            </g>
            <g>
                <mask id="prefix__bF" fill="#fff">
                    <use xlink:href="#prefix__bE"/>
                </mask>
                <path fill="#358ECD" d="M113.317 74.838c.05.108.003.238-.106.288-.108.05-.238.004-.288-.105-.051-.11-.004-.238.105-.289.109-.05.238-.003.289.106" mask="url(#prefix__bF)"/>
            </g>
            <g>
                <mask id="prefix__bH" fill="#fff">
                    <use xlink:href="#prefix__bG"/>
                </mask>
                <path fill="#358ECD" d="M111.657 76.034L111.856 75.786 112.735 76.452 112.669 76.535z" mask="url(#prefix__bH)"/>
            </g>
            <g>
                <mask id="prefix__bJ" fill="#fff">
                    <use xlink:href="#prefix__bI"/>
                </mask>
                <path fill="#358ECD" d="M113.15 76.627c.003.152-.117.278-.27.28-.151.004-.277-.117-.28-.27-.003-.151.118-.276.27-.28.152-.003.277.118.28.27" mask="url(#prefix__bJ)"/>
            </g>
            <g>
                <mask id="prefix__bL" fill="#fff">
                    <use xlink:href="#prefix__bK"/>
                </mask>
                <path fill="#358ECD" d="M106.223 72.545L106.102 72.839 105.027 72.21 105.067 72.112z" mask="url(#prefix__bL)"/>
            </g>
            <g>
                <mask id="prefix__bN" fill="#fff">
                    <use xlink:href="#prefix__bM"/>
                </mask>
                <path fill="#358ECD" d="M104.58 72.16c-.047-.146.034-.3.179-.346.144-.045.299.035.345.18.045.145-.035.299-.18.345-.145.046-.3-.035-.345-.18" mask="url(#prefix__bN)"/>
            </g>
            <g>
                <mask id="prefix__bP" fill="#fff">
                    <use xlink:href="#prefix__bO"/>
                </mask>
                <path fill="#358ECD" d="M106.895 71.392L106.717 71.562 106.354 71.025 106.413 70.968z" mask="url(#prefix__bP)"/>
            </g>
            <g>
                <mask id="prefix__bR" fill="#fff">
                    <use xlink:href="#prefix__bQ"/>
                </mask>
                <path fill="#358ECD" d="M106.067 70.858c.013-.12.12-.205.24-.192.12.013.206.12.192.24-.013.12-.12.205-.24.192-.12-.013-.205-.12-.192-.24" mask="url(#prefix__bR)"/>
            </g>
            <g>
                <mask id="prefix__bT" fill="#fff">
                    <use xlink:href="#prefix__bS"/>
                </mask>
                <path fill="#358ECD" d="M108.271 70.68L107.973 70.788 107.566 69.763 107.666 69.727z" mask="url(#prefix__bT)"/>
            </g>
            <g>
                <mask id="prefix__bV" fill="#fff">
                    <use xlink:href="#prefix__bU"/>
                </mask>
                <path fill="#358ECD" d="M107.303 69.398c.076-.132.244-.176.375-.1.132.076.176.244.1.376-.076.131-.244.176-.376.1-.131-.077-.176-.245-.1-.376" mask="url(#prefix__bV)"/>
            </g>
            <g>
                <mask id="prefix__bX" fill="#fff">
                    <use xlink:href="#prefix__bW"/>
                </mask>
                <path fill="#358ECD" d="M110.593 76.851L110.764 76.763 111.156 77.405 111.099 77.434z" mask="url(#prefix__bX)"/>
            </g>
            <g>
                <mask id="prefix__bZ" fill="#fff">
                    <use xlink:href="#prefix__bY"/>
                </mask>
                <path fill="#358ECD" d="M111.41 77.644c-.048.113-.178.166-.29.119-.114-.048-.167-.178-.12-.29.047-.114.177-.167.29-.12.114.047.167.178.12.29" mask="url(#prefix__bZ)"/>
            </g>
            <g>
                <mask id="prefix__cb" fill="#fff">
                    <use xlink:href="#prefix__ca"/>
                </mask>
                <path fill="#358ECD" d="M109.218 77.199L109.442 77.185 109.335 78.236 109.26 78.241z" mask="url(#prefix__cb)"/>
            </g>
            <g>
                <mask id="prefix__cd" fill="#fff">
                    <use xlink:href="#prefix__cc"/>
                </mask>
                <path fill="#358ECD" d="M107.822 76.94L108.029 77.016 107.773 77.498 107.704 77.472z" mask="url(#prefix__cd)"/>
            </g>
            <g>
                <mask id="prefix__cf" fill="#fff">
                    <use xlink:href="#prefix__ce"/>
                </mask>
                <path fill="#358ECD" d="M107.75 77.81c-.1.035-.21-.017-.245-.116-.035-.1.016-.209.116-.244.1-.036.208.016.244.115.035.1-.016.21-.116.245" mask="url(#prefix__cf)"/>
            </g>
            <g>
                <mask id="prefix__ch" fill="#fff">
                    <use xlink:href="#prefix__cg"/>
                </mask>
                <path fill="#358ECD" d="M106.634 76.152l.228.221-.772.682h-.003l-.073-.071v-.003l.62-.829z" mask="url(#prefix__ch)"/>
            </g>
            <g>
                <mask id="prefix__cj" fill="#fff">
                    <use xlink:href="#prefix__ci"/>
                </mask>
                <path fill="#358ECD" d="M105.876 77.453c-.152-.01-.265-.143-.254-.294.01-.152.143-.266.294-.254.152.01.265.142.254.294-.01.151-.142.265-.294.254" mask="url(#prefix__cj)"/>
            </g>
            <g>
                <mask id="prefix__cl" fill="#fff">
                    <use xlink:href="#prefix__ck"/>
                </mask>
                <path fill="#358ECD" d="M105.971 74.984L106.056 75.193 105.425 75.242 105.397 75.173z" mask="url(#prefix__cl)"/>
            </g>
            <g>
                <mask id="prefix__cn" fill="#fff">
                    <use xlink:href="#prefix__cm"/>
                </mask>
                <path fill="#358ECD" d="M105.173 75.44c-.095-.052-.131-.17-.08-.265.05-.095.168-.131.263-.08.096.05.132.168.081.264-.05.095-.169.13-.264.08" mask="url(#prefix__cn)"/>
            </g>
            <g>
                <mask id="prefix__cp" fill="#fff">
                    <use xlink:href="#prefix__co"/>
                </mask>
                <path fill="#358ECD" d="M105.7 73.569L105.691 73.887 104.77 73.916 104.773 73.81z" mask="url(#prefix__cp)"/>
            </g>
            <g>
                <mask id="prefix__cr" fill="#fff">
                    <use xlink:href="#prefix__cq"/>
                </mask>
                <path fill="#358ECD" d="M104.429 74.003c-.076-.097-.059-.236.037-.312.097-.076.236-.059.312.038.076.096.059.236-.037.311-.097.076-.236.06-.312-.037" mask="url(#prefix__cr)"/>
            </g>
            <g>
                <mask id="prefix__ct" fill="#fff">
                    <use xlink:href="#prefix__cs"/>
                </mask>
                <path fill="#55A0D5" d="M110.359 77.197c-1.412.41-3.189-.158-4.043-1.224-.982-1.228-.984-3.23.102-4.398.96-1.034 2.55-1.452 3.9-.983.992.344 1.837 1.202 2.156 2.204.378 1.189-.006 2.618-.8 3.562-.352.42-.81.692-1.315.839" mask="url(#prefix__ct)"/>
            </g>
            <g>
                <mask id="prefix__cv" fill="#fff">
                    <use xlink:href="#prefix__cu"/>
                </mask>
                <path fill="#BCDAEE" d="M107.785 72.538c.14.123.153.335.03.475-.122.14-.334.154-.474.031-.14-.122-.154-.335-.031-.475.122-.14.335-.153.475-.031" mask="url(#prefix__cv)"/>
            </g>
            <g>
                <mask id="prefix__cx" fill="#fff">
                    <use xlink:href="#prefix__cw"/>
                </mask>
                <path fill="#BCDAEE" d="M111.186 73.588c.222.195.245.533.05.755-.195.222-.533.244-.755.05-.222-.195-.245-.533-.05-.755.195-.223.533-.245.755-.05" mask="url(#prefix__cx)"/>
            </g>
            <g>
                <mask id="prefix__cz" fill="#fff">
                    <use xlink:href="#prefix__cy"/>
                </mask>
                <path fill="#BCDAEE" d="M107.884 74.823c.074.065.082.178.017.252-.065.074-.178.081-.251.016-.075-.064-.082-.177-.017-.251.065-.074.177-.082.251-.017" mask="url(#prefix__cz)"/>
            </g>
            <g>
                <mask id="prefix__cB" fill="#fff">
                    <use xlink:href="#prefix__cA"/>
                </mask>
                <path fill="#BCDAEE" d="M110.308 72.097c-.086.099-.236.109-.334.022-.1-.086-.109-.236-.023-.334.087-.099.237-.109.335-.023.099.087.108.237.022.335" mask="url(#prefix__cB)"/>
            </g>
            <g>
                <mask id="prefix__cD" fill="#fff">
                    <use xlink:href="#prefix__cC"/>
                </mask>
                <path fill="#BCDAEE" d="M109.69 75.878c-.086.098-.236.108-.334.022-.099-.086-.109-.236-.022-.335.086-.098.236-.108.334-.022.099.087.109.236.022.335" mask="url(#prefix__cD)"/>
            </g>
            <g>
                <mask id="prefix__cF" fill="#fff">
                    <use xlink:href="#prefix__cE"/>
                </mask>
                <path fill="#358ECD" d="M109.507 78.66c-.11.104-.284.099-.389-.011-.104-.11-.1-.285.01-.39.11-.103.285-.099.39.012.104.11.1.284-.01.388" mask="url(#prefix__cF)"/>
            </g>
            <g transform="translate(95.018 44.352)">
                <mask id="prefix__cH" fill="#fff">
                    <use xlink:href="#prefix__cG"/>
                </mask>
                <path fill="#9A2D3F" d="M22.666 9.14c-.568.576-1.27.921-2.029 1.078-.615.127-1.473.26-2.094.166-.53-.08-1.29-.505-1.75-.25-.279.152-.202.459-.346.742-.726 1.425-1.388 2.85-2.53 4.01-.91.924-2.041 1.48-3.259 1.731-3.403.707-7.484-.962-9.3-3.636C-.729 9.906-.36 5.184 2.415 2.634 4.873.376 8.696-.313 11.791 1.043c1.004.44 1.92 1.109 2.682 1.928.244-.546.591-1.044 1.036-1.453C17.039.11 19.416-.32 21.344.526c1.415.62 2.556 1.976 2.905 3.483.42 1.787-.31 3.84-1.583 5.131" mask="url(#prefix__cH)"/>
            </g>
            <g>
                <mask id="prefix__cJ" fill="#fff">
                    <use xlink:href="#prefix__cI"/>
                </mask>
                <path fill="#E75A71" d="M105.126 44.957L104.57 44.817 104.876 43.469 105.062 43.516z" mask="url(#prefix__cJ)"/>
            </g>
            <g>
                <mask id="prefix__cL" fill="#fff">
                    <use xlink:href="#prefix__cK"/>
                </mask>
                <path fill="#E75A71" d="M104.797 42.667c.247-.12.545-.016.664.232.12.247.016.545-.232.664-.248.12-.545.016-.664-.232-.12-.247-.016-.545.232-.664" mask="url(#prefix__cL)"/>
            </g>
            <g>
                <mask id="prefix__cN" fill="#fff">
                    <use xlink:href="#prefix__cM"/>
                </mask>
                <path fill="#E75A71" d="M108.639 47.214L107.912 47.144 108.707 44.929 108.949 44.952z" mask="url(#prefix__cN)"/>
            </g>
            <g>
                <mask id="prefix__cP" fill="#fff">
                    <use xlink:href="#prefix__cO"/>
                </mask>
                <path fill="#E75A71" d="M108.52 43.91c.287-.197.68-.123.878.165.198.288.124.682-.164.88-.288.197-.682.123-.88-.165-.197-.288-.123-.682.165-.88" mask="url(#prefix__cP)"/>
            </g>
            <g>
                <mask id="prefix__cR" fill="#fff">
                    <use xlink:href="#prefix__cQ"/>
                </mask>
                <path fill="#E75A71" d="M110.149 53.591L110.584 53.005 112.626 55.014 112.481 55.209z" mask="url(#prefix__cR)"/>
            </g>
            <g>
                <mask id="prefix__cT" fill="#fff">
                    <use xlink:href="#prefix__cS"/>
                </mask>
                <path fill="#E75A71" d="M113.594 55.38c.02.349-.246.648-.595.668-.348.02-.647-.247-.667-.595-.02-.349.246-.648.595-.668.349-.02.647.246.667.595" mask="url(#prefix__cT)"/>
            </g>
            <g>
                <mask id="prefix__cV" fill="#fff">
                    <use xlink:href="#prefix__cU"/>
                </mask>
                <path fill="#E75A71" d="M108.042 58.427L108.591 57.947 110.314 59.809 110.131 59.969z" mask="url(#prefix__cV)"/>
            </g>
            <g>
                <mask id="prefix__cX" fill="#fff">
                    <use xlink:href="#prefix__cW"/>
                </mask>
                <path fill="#E75A71" d="M111.183 60.372c-.054.345-.378.58-.723.526-.345-.055-.58-.378-.526-.723.055-.345.378-.581.723-.526.345.054.58.378.526.723" mask="url(#prefix__cX)"/>
            </g>
            <g>
                <mask id="prefix__cZ" fill="#fff">
                    <use xlink:href="#prefix__cY"/>
                </mask>
                <path fill="#E75A71" d="M96.972 47.974L96.649 48.438 95.586 47.393 95.694 47.239z" mask="url(#prefix__cZ)"/>
            </g>
            <g>
                <mask id="prefix__db" fill="#fff">
                    <use xlink:href="#prefix__da"/>
                </mask>
                <path fill="#E75A71" d="M94.864 47.148c-.025-.275.178-.518.453-.542.275-.025.518.178.543.453.024.275-.179.518-.454.543-.275.024-.518-.18-.542-.454" mask="url(#prefix__db)"/>
            </g>
            <g>
                <mask id="prefix__dd" fill="#fff">
                    <use xlink:href="#prefix__dc"/>
                </mask>
                <path fill="#E75A71" d="M100.984 45.245L100.305 45.511 99.313 43.176 99.539 43.088z" mask="url(#prefix__dd)"/>
            </g>
            <g>
                <mask id="prefix__df" fill="#fff">
                    <use xlink:href="#prefix__de"/>
                </mask>
                <path fill="#E75A71" d="M98.686 42.353c.167-.307.552-.419.858-.25.306.167.418.551.25.858-.167.306-.552.418-.858.25-.306-.168-.418-.552-.25-.858" mask="url(#prefix__df)"/>
            </g>
            <g>
                <mask id="prefix__dh" fill="#fff">
                    <use xlink:href="#prefix__dg"/>
                </mask>
                <path fill="#E75A71" d="M104.353 60.047L104.788 59.974 105.193 61.655 105.048 61.68z" mask="url(#prefix__dh)"/>
            </g>
            <g>
                <mask id="prefix__dj" fill="#fff">
                    <use xlink:href="#prefix__di"/>
                </mask>
                <path fill="#E75A71" d="M105.579 62.358c-.184.214-.506.239-.72.055-.214-.184-.239-.506-.055-.72.183-.214.506-.239.72-.055.214.183.238.506.055.72" mask="url(#prefix__dj)"/>
            </g>
            <g>
                <mask id="prefix__dl" fill="#fff">
                    <use xlink:href="#prefix__dk"/>
                </mask>
                <path fill="#E75A71" d="M100.729 59.709L101.222 59.858 100.149 62.036 99.985 61.987z" mask="url(#prefix__dl)"/>
            </g>
            <g>
                <mask id="prefix__dn" fill="#fff">
                    <use xlink:href="#prefix__dm"/>
                </mask>
                <path fill="#E75A71" d="M97.651 58.01l.546.485-1.705 1.642c-.002.002-.005.002-.007 0l-.175-.155c-.002-.002-.002-.005 0-.007l1.341-1.965z" mask="url(#prefix__dn)"/>
            </g>
            <g>
                <mask id="prefix__dp" fill="#fff">
                    <use xlink:href="#prefix__do"/>
                </mask>
                <path fill="#E75A71" d="M96.04 61.074c-.35-.01-.624-.302-.614-.651.01-.35.302-.624.651-.614.35.01.624.302.614.652-.011.349-.302.623-.651.613" mask="url(#prefix__dp)"/>
            </g>
            <g>
                <mask id="prefix__dr" fill="#fff">
                    <use xlink:href="#prefix__dq"/>
                </mask>
                <path fill="#E75A71" d="M95.943 55.257L96.148 55.733 94.701 55.876 94.632 55.718z" mask="url(#prefix__dr)"/>
            </g>
            <g>
                <mask id="prefix__dt" fill="#fff">
                    <use xlink:href="#prefix__ds"/>
                </mask>
                <path fill="#E75A71" d="M94.131 56.342c-.221-.112-.31-.382-.198-.604.111-.22.381-.31.603-.198.221.112.31.382.198.603-.112.221-.382.31-.603.199" mask="url(#prefix__dt)"/>
            </g>
            <g>
                <mask id="prefix__dv" fill="#fff">
                    <use xlink:href="#prefix__du"/>
                </mask>
                <path fill="#E75A71" d="M95.365 51.208L95.286 51.933 93.17 51.834 93.196 51.592z" mask="url(#prefix__dv)"/>
            </g>
            <g>
                <mask id="prefix__dx" fill="#fff">
                    <use xlink:href="#prefix__dw"/>
                </mask>
                <path fill="#E75A71" d="M92.373 51.971c-.156-.234-.092-.551.142-.707.235-.156.552-.093.708.142.156.235.092.551-.142.708-.235.156-.552.092-.708-.143" mask="url(#prefix__dx)"/>
            </g>
            <g>
                <mask id="prefix__dz" fill="#fff">
                    <use xlink:href="#prefix__dy"/>
                </mask>
                <path fill="#E75A71" d="M117.492 53.105c-.542.566-1.223.909-1.957 1.072-1.087.239-2.263.083-3.287-.338-1.178-.486-1.619 1.645-1.951 2.339-.442.92-1.027 1.775-1.743 2.502-.883.898-1.984 1.438-3.168 1.682-3.311.689-7.28-.934-9.042-3.535-2.03-2.99-1.674-7.58 1.027-10.06 2.388-2.195 6.106-2.87 9.12-1.549.617.271 1.195.628 1.72 1.05.555.444 1.017 1.04 1.587.333.509-.63.93-1.158 1.662-1.565 1.4-.78 3.161-.922 4.646-.293 1.384.587 2.508 1.893 2.868 3.353.425 1.733-.257 3.737-1.482 5.009" mask="url(#prefix__dz)"/>
            </g>
            <g>
                <mask id="prefix__dB" fill="#fff">
                    <use xlink:href="#prefix__dA"/>
                </mask>
                <path fill="#FADBE0" d="M108.784 53.109c.326.334.319.87-.015 1.195-.335.326-.87.32-1.196-.015-.326-.335-.319-.87.015-1.196.335-.326.87-.319 1.196.016" mask="url(#prefix__dB)"/>
            </g>
            <g>
                <mask id="prefix__dD" fill="#fff">
                    <use xlink:href="#prefix__dC"/>
                </mask>
                <path fill="#FADBE0" d="M101.443 53.679c.158.162.154.421-.008.58-.162.157-.421.154-.58-.008-.157-.162-.154-.422.008-.58.163-.158.422-.155.58.008" mask="url(#prefix__dD)"/>
            </g>
            <g>
                <mask id="prefix__dF" fill="#fff">
                    <use xlink:href="#prefix__dE"/>
                </mask>
                <path fill="#FADBE0" d="M105.439 48.844c.19.232.157.576-.075.767-.233.191-.577.158-.768-.075-.191-.233-.157-.576.075-.767.233-.192.576-.158.768.075" mask="url(#prefix__dF)"/>
            </g>
            <g>
                <mask id="prefix__dH" fill="#fff">
                    <use xlink:href="#prefix__dG"/>
                </mask>
                <path fill="#FADBE0" d="M103.864 58.263c-.274.267-.713.261-.98-.013s-.261-.713.013-.98.713-.261.98.013.261.713-.013.98" mask="url(#prefix__dH)"/>
            </g>
            <g>
                <mask id="prefix__dJ" fill="#fff">
                    <use xlink:href="#prefix__dI"/>
                </mask>
                <path fill="#E75A71" d="M100.182 63.087c-.322.137-.693-.013-.83-.334-.137-.322.013-.693.334-.83s.693.013.83.334c.136.321-.013.693-.334.83" mask="url(#prefix__dJ)"/>
            </g>
            <g>
                <mask id="prefix__dL" fill="#fff">
                    <use xlink:href="#prefix__dK"/>
                </mask>
                <path fill="#E75A71" d="M115.314 44.606L114.967 44.519 115.158 43.68 115.274 43.709z" mask="url(#prefix__dL)"/>
            </g>
            <g>
                <mask id="prefix__dN" fill="#fff">
                    <use xlink:href="#prefix__dM"/>
                </mask>
                <path fill="#E75A71" d="M115.109 43.18c.154-.073.339-.009.413.145.074.154.01.34-.144.414-.154.074-.34.01-.414-.145-.074-.154-.01-.339.145-.413" mask="url(#prefix__dN)"/>
            </g>
            <g>
                <mask id="prefix__dP" fill="#fff">
                    <use xlink:href="#prefix__dO"/>
                </mask>
                <path fill="#E75A71" d="M117.189 45.497L116.832 45.217 117.989 44.32 118.108 44.413z" mask="url(#prefix__dP)"/>
            </g>
            <g>
                <mask id="prefix__dR" fill="#fff">
                    <use xlink:href="#prefix__dQ"/>
                </mask>
                <path fill="#E75A71" d="M118.231 43.723c.217-.007.4.163.407.38.007.217-.163.4-.38.406-.218.008-.4-.163-.407-.38-.007-.217.163-.399.38-.406" mask="url(#prefix__dR)"/>
            </g>
            <g>
                <mask id="prefix__dT" fill="#fff">
                    <use xlink:href="#prefix__dS"/>
                </mask>
                <path fill="#E75A71" d="M118.802 47.889L118.694 47.54 119.506 47.407 119.542 47.523z" mask="url(#prefix__dT)"/>
            </g>
            <g>
                <mask id="prefix__dV" fill="#fff">
                    <use xlink:href="#prefix__dU"/>
                </mask>
                <path fill="#E75A71" d="M119.55 47.581c-.13-.164-.103-.402.06-.531.164-.13.402-.103.532.06.13.165.103.403-.061.532-.164.13-.402.103-.532-.061" mask="url(#prefix__dV)"/>
            </g>
            <g>
                <mask id="prefix__dX" fill="#fff">
                    <use xlink:href="#prefix__dW"/>
                </mask>
                <path fill="#E75A71" d="M118.316 50.454L118.426 50.014 120.08 50.68 120.043 50.827z" mask="url(#prefix__dX)"/>
            </g>
            <g>
                <mask id="prefix__dZ" fill="#fff">
                    <use xlink:href="#prefix__dY"/>
                </mask>
                <path fill="#E75A71" d="M120.724 50.659c.095.196.013.431-.183.526-.195.095-.43.013-.526-.183-.094-.195-.013-.43.183-.525.195-.095.43-.014.526.182" mask="url(#prefix__dZ)"/>
            </g>
            <g>
                <mask id="prefix__eb" fill="#fff">
                    <use xlink:href="#prefix__ea"/>
                </mask>
                <path fill="#E75A71" d="M117.128 52.989L117.47 52.69 118.542 53.848 118.428 53.948z" mask="url(#prefix__eb)"/>
            </g>
            <g>
                <mask id="prefix__ed" fill="#fff">
                    <use xlink:href="#prefix__ec"/>
                </mask>
                <path fill="#E75A71" d="M119.083 54.199c-.034.215-.235.361-.45.327-.214-.034-.361-.235-.327-.45.034-.214.235-.361.45-.327.214.034.361.235.327.45" mask="url(#prefix__ed)"/>
            </g>
            <g>
                <mask id="prefix__ef" fill="#fff">
                    <use xlink:href="#prefix__ee"/>
                </mask>
                <path fill="#E75A71" d="M112.736 44.785L112.313 44.951 111.696 43.498 111.837 43.443z" mask="url(#prefix__ef)"/>
            </g>
            <g>
                <mask id="prefix__eh" fill="#fff">
                    <use xlink:href="#prefix__eg"/>
                </mask>
                <path fill="#E75A71" d="M111.306 42.985c.104-.19.343-.26.534-.156.19.105.26.344.156.535-.105.19-.344.26-.535.155-.19-.104-.26-.343-.155-.534" mask="url(#prefix__eh)"/>
            </g>
            <g>
                <mask id="prefix__ej" fill="#fff">
                    <use xlink:href="#prefix__ei"/>
                </mask>
                <path fill="#E75A71" d="M115.687 54.06L115.957 54.015 116.209 55.061 116.119 55.076z" mask="url(#prefix__ej)"/>
            </g>
            <g>
                <mask id="prefix__el" fill="#fff">
                    <use xlink:href="#prefix__ek"/>
                </mask>
                <path fill="#E75A71" d="M116.45 55.498c-.115.133-.315.149-.449.035-.133-.115-.148-.315-.034-.449.114-.133.315-.148.448-.034.133.114.149.315.034.448" mask="url(#prefix__el)"/>
            </g>
            <g>
                <mask id="prefix__en" fill="#fff">
                    <use xlink:href="#prefix__em"/>
                </mask>
                <path fill="#FADBE0" d="M112.328 47.26c.186.19.182.495-.008.68-.19.186-.495.182-.681-.009-.186-.19-.182-.495.009-.68.19-.186.495-.182.68.008" mask="url(#prefix__en)"/>
            </g>
            <g>
                <mask id="prefix__ep" fill="#fff">
                    <use xlink:href="#prefix__eo"/>
                </mask>
                <path fill="#FADBE0" d="M117.59 49.679c.203.208.199.541-.01.744-.208.203-.54.199-.744-.01-.202-.208-.198-.54.01-.744.208-.203.541-.198.744.01" mask="url(#prefix__ep)"/>
            </g>
            <g>
                <mask id="prefix__er" fill="#fff">
                    <use xlink:href="#prefix__eq"/>
                </mask>
                <path fill="#FADBE0" d="M110.373 50c.098.1.096.262-.004.36-.101.099-.263.097-.361-.004-.098-.101-.096-.263.005-.361.1-.098.262-.096.36.005" mask="url(#prefix__er)"/>
            </g>
            <g>
                <mask id="prefix__et" fill="#fff">
                    <use xlink:href="#prefix__es"/>
                </mask>
                <path fill="#FADBE0" d="M115.508 47.025c.119.144.098.358-.047.477-.144.12-.358.098-.477-.046-.12-.145-.098-.359.047-.478.144-.119.358-.098.477.047" mask="url(#prefix__et)"/>
            </g>
            <g>
                <mask id="prefix__ev" fill="#fff">
                    <use xlink:href="#prefix__eu"/>
                </mask>
                <path fill="#FADBE0" d="M114.516 51.941c-.171.166-.444.163-.61-.008-.166-.17-.163-.443.008-.61.17-.166.443-.162.61.009.166.17.162.443-.008.61" mask="url(#prefix__ev)"/>
            </g>
            <g>
                <mask id="prefix__ex" fill="#fff">
                    <use xlink:href="#prefix__ew"/>
                </mask>
                <path fill="#FADBE0" d="M100.33 49.22c.297.307.291.796-.015 1.095-.306.298-.796.291-1.094-.015-.298-.306-.292-.795.014-1.093.306-.298.796-.292 1.094.014" mask="url(#prefix__ex)"/>
            </g>
        </g>
        <path fill="#000" stroke="#000" stroke-width=".5" d="M27 51c3.357-23.132 13.908-33.723 31.653-31.772C76.4 21.178 65.848 31.768 27 51z"/>
        <g stroke="#000" stroke-width="2">
            <path d="M2.239 0L10.239 4.054 2.239 7M10.239 3.812L0 3.812" transform="translate(43.375 59.169)"/>
        </g>
        <g stroke="#000" stroke-width="2">
            <path d="M2.239 0L10.239 4.054 2.239 7M10.239 3.812L0 3.812" transform="rotate(-180 39.077 33.294)"/>
        </g>
    </g>
</svg>
