<svg xmlns="http://www.w3.org/2000/svg" xmlns:xlink="http://www.w3.org/1999/xlink" width="149" height="149" viewBox="0 0 149 149">
    <defs>
        <path id="prefix__a" d="M74.5 0C115.645 0 149 33.355 149 74.5S115.645 149 74.5 149 0 115.645 0 74.5"/>
        <path id="prefix__c" d="M74.5 0C115.645 0 149 33.355 149 74.5S115.645 149 74.5 149 0 115.645 0 74.5"/>
        <path id="prefix__e" d="M74.5 0C115.645 0 149 33.355 149 74.5S115.645 149 74.5 149 0 115.645 0 74.5"/>
        <path id="prefix__g" d="M74.5 0C115.645 0 149 33.355 149 74.5S115.645 149 74.5 149 0 115.645 0 74.5 33.355 0 74.5 0z"/>
        <path id="prefix__i" d="M0.113 0.116L15.164 0.116 15.164 14.561 0.113 14.561z"/>
        <path id="prefix__k" d="M6.72 6.6c0 2.69-.132 5.346-.39 7.962L.105 14.56V.116L6.462.115"/>
        <path id="prefix__m" d="M9.644 9.966c0 2.052-.086 4.085-.257 6.095H0V.104h8.967"/>
    </defs>
    <g fill="none" fill-rule="evenodd">
        <mask id="prefix__b" fill="#fff">
            <use xlink:href="#prefix__a"/>
        </mask>
        <path fill="#B0DBEF" d="M91.853-18.687c18.738 42.062 86.879 40.084 114.667 74.045 14.354 17.541 19.773 42.033 14.16 63.992-5.613 21.959-22.121 40.846-43.132 49.347-18.588 7.522-39.368 7.043-59.346 5.304-26.052-2.268-52.546-6.688-75.41-19.38C19.927 141.93 1.068 119.636-1.62 93.624c-2.063-19.963 5.242-40.923-1.554-59.808-4.013-11.15-12.529-20.137-17.287-30.991-8.948-20.413-2.767-45.674 12.608-61.809 15.375-16.135 38.536-23.551 60.8-22.517 11.984.556 25.117 4.253 31.343 14.508 5.985 9.859 2.222 18.188 2.879 28.408.487 7.59 2.125 14.155 4.684 19.898" mask="url(#prefix__b)"/>
        <mask id="prefix__d" fill="#fff">
            <use xlink:href="#prefix__c"/>
        </mask>
        <path fill="#38BEA1" d="M129.948 77.326c1.99 3.708 9.118 4.454 9.118 4.454s3.905-5.266 1.916-8.974c-1.99-3.708-10.49-7.01-10.49-7.01s-2.533 7.823-.544 11.53" mask="url(#prefix__d)"/>
        <mask id="prefix__f" fill="#fff">
            <use xlink:href="#prefix__e"/>
        </mask>
        <path fill="#38BEA1" d="M153.753 77.326c-1.989 3.708-9.118 4.454-9.118 4.454s-3.904-5.266-1.915-8.974c1.989-3.708 10.49-7.01 10.49-7.01s2.532 7.823.543 11.53" mask="url(#prefix__f)"/>
        <mask id="prefix__h" fill="#fff">
            <use xlink:href="#prefix__g"/>
        </mask>
        <path fill="#F6D4A2" d="M16 44L191 44 191 -49 16 -49z" mask="url(#prefix__h)"/>
        <path fill="#F1F1F2" d="M13 47h181v-99H13v99zm5.892-5.913h169.216v-87.174H18.892v87.174z" mask="url(#prefix__h)"/>
        <path stroke="#F1F1F2" stroke-width="2.159" d="M59-52L59 47M148-52L148 47M104-52L104 47" mask="url(#prefix__h)"/>
        <path fill="#F2BE72" d="M151.229 202L147.542 202 142 103 154 103zM120.229 202L116.542 202 111 103 123 103z" mask="url(#prefix__h)"/>
        <path fill="#F2BE72" d="M146.86 136L119 102.866 121.14 101 149 134.134z" mask="url(#prefix__h)"/>
        <path fill="#F2BE72" d="M120.14 136L118 134.134 145.86 101 148 102.866z" mask="url(#prefix__h)"/>
        <path fill="#845F54" d="M166.331 103L-61.332 103 -69 94 174 94z" mask="url(#prefix__h)"/>
        <path fill="#3ABEA2" d="M132.373 80.157c3.414 3.128 10.344 1.327 10.344 1.327s1.396-6.871-2.017-9.999C137.286 68.357 128 68 128 68s.959 9.03 4.373 12.157" mask="url(#prefix__h)"/>
        <path fill="#3ABEA2" d="M152.627 80.157c-3.414 3.128-10.344 1.327-10.344 1.327s-1.396-6.871 2.017-9.999C147.714 68.357 157 68 157 68s-.959 9.03-4.373 12.157" mask="url(#prefix__h)"/>
        <g mask="url(#prefix__h)">
            <g transform="translate(127 68)">
                <mask id="prefix__j" fill="#fff">
                    <use xlink:href="#prefix__i"/>
                </mask>
                <path fill="#3ABEA2" d="M4.5 12.66c3.426 3.227 10.38 1.369 10.38 1.369s1.401-7.09-2.024-10.317C9.43.484.113.116.113.116S1.075 9.432 4.5 12.659" mask="url(#prefix__j)"/>
            </g>
        </g>
        <g mask="url(#prefix__h)">
            <g transform="translate(142 68)">
                <mask id="prefix__l" fill="#fff">
                    <use xlink:href="#prefix__k"/>
                </mask>
                <path fill="#3ABEA2" d="M10.102 12.66C6.89 15.886.37 14.028.37 14.028S-.943 6.939 2.268 3.712C5.48.484 14.215.116 14.215.116s-.902 9.316-4.113 12.543" mask="url(#prefix__l)"/>
            </g>
        </g>
        <path fill="#70D0BC" d="M136.74 74.542c1.931 3.712 8.852 4.458 8.852 4.458s3.79-5.27 1.86-8.982C145.52 66.306 137.267 63 137.267 63s-2.458 7.831-.527 11.542" mask="url(#prefix__h)"/>
        <path fill="#70D0BC" d="M148.26 74.542c-1.931 3.712-8.852 4.458-8.852 4.458s-3.79-5.27-1.86-8.982C139.48 66.306 147.733 63 147.733 63s2.458 7.831.527 11.542" mask="url(#prefix__h)"/>
        <path fill="#27B899" d="M133.74 76.542c1.931 3.712 8.852 4.458 8.852 4.458s3.79-5.27 1.86-8.982C142.52 68.307 134.267 65 134.267 65s-2.458 7.831-.527 11.542" mask="url(#prefix__h)"/>
        <path fill="#27B899" d="M151.26 76.542c-1.931 3.712-8.852 4.458-8.852 4.458s-3.79-5.27-1.86-8.982C142.48 68.307 150.733 65 150.733 65s2.458 7.831.527 11.542" mask="url(#prefix__h)"/>
        <path fill="#ABE3D7" d="M133.74 76.542c1.931 3.712 8.852 4.458 8.852 4.458s3.79-5.27 1.86-8.982C142.52 68.307 134.267 65 134.267 65s-2.458 7.831-.527 11.542" mask="url(#prefix__h)"/>
        <g mask="url(#prefix__h)">
            <g transform="translate(140 65)">
                <mask id="prefix__n" fill="#fff">
                    <use xlink:href="#prefix__m"/>
                </mask>
                <path fill="#ABE3D7" d="M12.109 11.616c-2.077 3.7-9.52 4.445-9.52 4.445s-4.076-5.257-2-8.958c2.077-3.702 10.953-7 10.953-7s2.644 7.811.567 11.513" mask="url(#prefix__n)"/>
            </g>
        </g>
        <path fill="#27B899" d="M148 73.44c0 4.175-6 7.56-6 7.56s-6-3.385-6-7.56S142 63 142 63s6 6.265 6 10.44" mask="url(#prefix__h)"/>
        <path fill="#F1F1F2" d="M147.603 94h-10.206C132.76 94 129 90.128 129 85.352V77h27v8.352c0 4.776-3.76 8.648-8.397 8.648" mask="url(#prefix__h)"/>
        <path fill="#F2BE72" d="M131 94L153 94 153 91 131 91z" mask="url(#prefix__h)"/>
        <path fill="#EC798C" d="M59 75.621L65.464 77 67 68.379 60.536 67z" mask="url(#prefix__h)"/>
        <path fill="#FAE4C4" d="M18 71.195c4.831 2.853 6.504 6.291 6.326 10.07L38.153 84c2.381-6.595 10.508-8.27 21.254-7.704L61 68.012 25.544 61 18 71.195z" mask="url(#prefix__h)"/>
        <path fill="#366E95" d="M18 88.714L38.938 93 40 87.286 19.062 83z" mask="url(#prefix__h)"/>
        <path fill="#366E95" d="M21 85.612L37.933 89 39 83.388 22.067 80z" mask="url(#prefix__h)"/>
        <path fill="#FAE4C4" d="M47.534 98l1.13-.673c1.71-1.017 2.615-3.336 2.26-5.791L48.383 74 43 75.028 47.534 98z" mask="url(#prefix__h)"/>
        <path fill="#8A8E9D" d="M4.116 151.396l28.358 5.532c2.108.411 4.144-.98 4.528-3.094l4.062-22.39c.63-3.472.29-7.05-.982-10.34l-2.58-6.675c-.765-4.072.166-8.28 2.577-11.65l3.357-4.69c1.273-1.78.28-4.28-1.868-4.7L19.065 89l-7.573 11.431c-4.166 6.29-6.774 13.481-7.606 20.98l-2.862 25.777c-.222 1.994 1.123 3.824 3.092 4.208" mask="url(#prefix__h)"/>
        <path fill="#FFF" d="M3.116 151.396l28.358 5.532c2.108.411 4.145-.98 4.528-3.094l4.062-22.39c.63-3.472.29-7.05-.982-10.34l-2.58-6.675c-.765-4.072.166-8.28 2.577-11.65l3.357-4.69c1.273-1.78.28-4.28-1.868-4.7L18.065 89l-7.573 11.43c-4.166 6.29-6.774 13.482-7.606 20.98L.024 147.189c-.222 1.994 1.123 3.824 3.092 4.208" mask="url(#prefix__h)"/>
        <path stroke="#FFF" stroke-linecap="round" stroke-width=".776" d="M72 72L94 71M72 75L86 79M71 78L86 94" mask="url(#prefix__h)"/>
        <path fill="#BCDAEE" d="M7.17 146.993l20.412 3.963c1.518.294 3.025-.915 3.352-2.688l3.923-21.283.007-.04c.366-2.019-.026-4.072-.94-5.755l-10.788-19.852c-1.74-3.202-5.87-3.096-7.822.202l-1.616 2.731c-3.164 5.348-5.22 11.413-5.997 17.693l-2.672 21.588c-.207 1.67.724 3.166 2.141 3.441" mask="url(#prefix__h)"/>
        <path fill="#DBA68A" d="M30.036 87L2.034 73.013C1.624 68.746 5.008 63.89 6.32 60l15.604 2.92c.535.101 1.083.104 1.62.009l8.251-1.458c.93-.173 1.89-.072 2.767.29l7.756 3.507 5.226 1.394c1.151.274 1.413 1.204 1.453 2.123.056 1.257-.75 2.034-1.784 2.365-.045.012-1.52.311-1.652.322-.973.078-5.14-.415-5.14-.415l4.182 2.532" mask="url(#prefix__h)"/>
        <path fill="#DBA68A" d="M53.944 78.075c.205-.655-.169-1.35-.833-1.55L38.184 72 37 75.791l13.484 4.088c1.461.443 3.01-.365 3.46-1.804M43.929 88.474c.26-.822-.214-1.694-1.056-1.947L31.12 83 30 86.554l11.16 3.35c1.17.351 2.41-.29 2.769-1.43" mask="url(#prefix__h)"/>
        <path fill="#DBA68A" d="M49.93 86.075c.256-.81-.212-1.668-1.045-1.917L28.29 78 27 82.071l19.424 5.808c1.48.442 3.05-.365 3.506-1.804" mask="url(#prefix__h)"/>
        <path fill="#DBA68A" d="M54.93 82.721c.253-.84-.207-1.731-1.027-1.99L29.383 73 28 77.606l22.994 7.25c1.663.525 3.425-.431 3.937-2.135" mask="url(#prefix__h)"/>
        <path fill="#064C7C" d="M-44.5 54.71L9.62 79c5.165-4.485 6.309-10.343 4.71-17.136L-35.444 29-63 40.195l5.11 4.445c2.869 2.496 9.918 8.522 13.39 10.07" mask="url(#prefix__h)"/>
        <path fill="#F8DAAF" d="M113 67c0 4.418-3.582 8-8 8s-8-3.582-8-8 3.582-8 8-8 8 3.582 8 8" mask="url(#prefix__h)"/>
        <path stroke="#FFF" stroke-width=".543" d="M99 65c.37-1.214 1.077-2.259 2-3" mask="url(#prefix__h)"/>
        <path fill="#FBE9CF" d="M116 73c0 2.761-2.239 5-5 5s-5-2.239-5-5 2.239-5 5-5 5 2.239 5 5" mask="url(#prefix__h)"/>
        <path stroke="#FFF" stroke-width=".5" d="M108 72c.185-.81.539-1.506 1-2" mask="url(#prefix__h)"/>
        <path stroke="#ED8395" stroke-linecap="round" stroke-width=".5" d="M94 77L94 80M96 78L93 78M124 83L124 87M126 85L122 85M117 64L117 67M118 66L115 66" mask="url(#prefix__h)"/>
        <path fill="#F5CC90" d="M73.147 96.451c-.54.1-1.091.104-1.631.01l-3.6-.624c-.94-.164-1.909-.008-2.755.442l-4.25 2.262c-.353.188-.731.32-1.122.393-2.15.4-4.21-1.052-4.603-3.243L54 89.064 75.87 85l1.053 5.887c.465 2.599-1.225 5.09-3.776 5.564" mask="url(#prefix__h)"/>
        <path fill="#F1A1AE" d="M75.717 85.862l.207 1.157c.458 2.557-1.205 5.007-3.716 5.474-.53.098-1.071.105-1.601.01l-3.549-.615c-.921-.158-1.879-.009-2.705.438l-4.186 2.224c-.347.186-.718.313-1.106.385-1.061.197-2.092-.063-2.913-.64-.82-.578-1.423-1.469-1.616-2.55l-.468-2.613c-.193-1.074.061-2.13.628-2.966.568-.836 1.442-1.45 2.504-1.647.388-.072.779-.087 1.167-.038l4.688.576c.927.114 1.876-.083 2.683-.563l3.107-1.851c.463-.28.97-.467 1.501-.566 2.511-.466 4.917 1.228 5.375 3.785" mask="url(#prefix__h)"/>
        <path fill="#E75A71" d="M61.99 91.385c.077.268-.304.538-.851.601-.547.064-1.052-.102-1.13-.37-.076-.27.305-.539.852-.602.547-.064 1.052.102 1.13.37M74.99 86.385c.077.268-.304.538-.851.601-.547.064-1.052-.102-1.13-.37-.076-.27.305-.539.852-.602.547-.064 1.052.102 1.13.37M68.99 86.385c.077.268-.304.538-.851.601-.547.064-1.052-.102-1.13-.37-.076-.27.305-.539.852-.602.547-.064 1.052.102 1.13.37M57.99 86.385c.077.268-.304.538-.851.601-.547.064-1.052-.102-1.13-.37-.076-.27.305-.539.852-.602.547-.064 1.052.102 1.13.37M71.99 89.385c.077.268-.304.538-.851.601-.547.064-1.052-.102-1.13-.37-.076-.27.305-.539.852-.602.547-.064 1.052.102 1.13.37M57.99 90.77c.077.537-.304 1.076-.85 1.203-.548.127-1.053-.205-1.13-.742-.077-.538.304-1.077.85-1.204.548-.127 1.053.205 1.13.743M65.99 88.77c.077.537-.304 1.076-.85 1.203-.548.127-1.053-.205-1.13-.742-.077-.538.304-1.077.85-1.204.548-.127 1.053.205 1.13.743M62.99 85.77c.077.537-.304 1.076-.851 1.203-.547.127-1.052-.205-1.13-.743-.076-.537.305-1.076.852-1.203.547-.127 1.052.205 1.13.743M70.99 83.77c.077.537-.304 1.076-.85 1.203-.548.127-1.053-.205-1.13-.742-.077-.538.304-1.077.85-1.204.548-.127 1.053.205 1.13.743" mask="url(#prefix__h)"/>
        <path fill="#F8DAAF" d="M118 87c0 2.21-1.791 4-4 4-2.21 0-4-1.79-4-4s1.79-4 4-4c2.209 0 4 1.79 4 4" mask="url(#prefix__h)"/>
        <path stroke="#FFF" stroke-width=".5" d="M112 86c.185-.81.539-1.506 1-2" mask="url(#prefix__h)"/>
        <path fill="#FCF0DF" d="M103 90c0 1.104-.896 2-2 2s-2-.896-2-2c0-1.105.896-2 2-2s2 .895 2 2" mask="url(#prefix__h)"/>
    </g>
</svg>
