<?xml version="1.0" encoding="UTF-8"?>
<svg width="155px" height="156px" viewBox="0 0 155 156" version="1.1" xmlns="http://www.w3.org/2000/svg" xmlns:xlink="http://www.w3.org/1999/xlink">
    <!-- Generator: Sketch 63.1 (92452) - https://sketch.com -->
    <title>social-distance</title>
    <desc>Created with Sketch.</desc>
    <defs>
        <path d="M77.5,0 C120.302,0 155,34.748 155,77.612 C155,120.476 120.302,155.224 77.5,155.224 C34.698,155.224 0,120.476 0,77.612" id="path-1"></path>
        <path d="M77.5,0 C120.302,0 155,34.748 155,77.612 C155,120.476 120.302,155.224 77.5,155.224 C34.698,155.224 0,120.476 0,77.612 C0,34.748 34.698,0 77.5,0 Z" id="path-3"></path>
        <path d="M77.5,0 C120.302,0 155,34.748 155,77.612 C155,120.476 120.302,155.224 77.5,155.224 C34.698,155.224 0,120.476 0,77.612" id="path-5"></path>
        <polygon id="path-7" points="0.09 0.015 32.178 0.015 32.178 95.078 0.09 95.078"></polygon>
        <path d="M77.5,0 C120.302,0 155,34.748 155,77.612 C155,120.476 120.302,155.224 77.5,155.224 C34.698,155.224 0,120.476 0,77.612 C0,34.748 34.698,0 77.5,0 Z" id="path-9"></path>
        <path d="M77.5,0 C120.302,0 155,34.748 155,77.612 C155,120.476 120.302,155.224 77.5,155.224 C34.698,155.224 0,120.476 0,77.612" id="path-11"></path>
        <path d="M23.105,17.001 L23.105,42.915 C21.595,51.909 18.541,60.379 14.225,68.04 L0.128,68.039 L0.128,0.053 L18.218,0.053 C20.458,5.423 22.114,11.099 23.105,17.001 Z" id="path-13"></path>
        <path d="M77.5,0 C120.302,0 155,34.748 155,77.612 C155,120.476 120.302,155.224 77.5,155.224 C34.698,155.224 0,120.476 0,77.612 C0,34.748 34.698,0 77.5,0 Z" id="path-15"></path>
        <path d="M4.118,0.096 L4.12,59.45 C2.807,59.893 1.478,60.3 0.134,60.674 L0.132,0.096 L4.118,0.096 Z" id="path-17"></path>
        <path d="M60.45,29.027 C36.08,29.027 14.336,17.762 0.13,0.147 L120.77,0.147 C106.564,17.762 84.82,29.027 60.45,29.027 Z" id="path-19"></path>
        <path d="M77.5,0 C120.302,0 155,34.748 155,77.612 C155,120.476 120.302,155.224 77.5,155.224 C34.698,155.224 0,120.476 0,77.612" id="path-21"></path>
        <path d="M77.5,0 C120.302,0 155,34.748 155,77.612 C155,120.476 120.302,155.224 77.5,155.224 C34.698,155.224 0,120.476 0,77.612" id="path-23"></path>
        <path d="M77.5,0 C120.302,0 155,34.748 155,77.612 C155,120.476 120.302,155.224 77.5,155.224 C34.698,155.224 0,120.476 0,77.612" id="path-25"></path>
        <path d="M77.5,0 C120.302,0 155,34.748 155,77.612 C155,120.476 120.302,155.224 77.5,155.224 C34.698,155.224 0,120.476 0,77.612" id="path-27"></path>
        <path d="M77.5,0 C120.302,0 155,34.748 155,77.612 C155,120.476 120.302,155.224 77.5,155.224 C34.698,155.224 0,120.476 0,77.612" id="path-29"></path>
        <path d="M77.5,0 C120.302,0 155,34.748 155,77.612 C155,120.476 120.302,155.224 77.5,155.224 C34.698,155.224 0,120.476 0,77.612" id="path-31"></path>
        <path d="M77.5,0 C120.302,0 155,34.748 155,77.612 C155,120.476 120.302,155.224 77.5,155.224 C34.698,155.224 0,120.476 0,77.612 C0,34.748 34.698,0 77.5,0 Z" id="path-33"></path>
        <path d="M77.5,0 C120.302,0 155,34.748 155,77.612 C155,120.476 120.302,155.224 77.5,155.224 C34.698,155.224 0,120.476 0,77.612 C0,34.748 34.698,0 77.5,0 Z" id="path-35"></path>
        <path d="M77.5,0 C120.302,0 155,34.748 155,77.612 C155,120.476 120.302,155.224 77.5,155.224 C34.698,155.224 0,120.476 0,77.612" id="path-37"></path>
        <path d="M77.5,0 C120.302,0 155,34.748 155,77.612 C155,120.476 120.302,155.224 77.5,155.224 C34.698,155.224 0,120.476 0,77.612" id="path-39"></path>
        <path d="M77.5,0 C120.302,0 155,34.748 155,77.612 C155,120.476 120.302,155.224 77.5,155.224 C34.698,155.224 0,120.476 0,77.612" id="path-41"></path>
        <path d="M77.5,0 C120.302,0 155,34.748 155,77.612 C155,120.476 120.302,155.224 77.5,155.224 C34.698,155.224 0,120.476 0,77.612" id="path-43"></path>
        <path d="M77.5,0 C120.302,0 155,34.748 155,77.612 C155,120.476 120.302,155.224 77.5,155.224 C34.698,155.224 0,120.476 0,77.612" id="path-45"></path>
        <path d="M77.5,0 C120.302,0 155,34.748 155,77.612 C155,120.476 120.302,155.224 77.5,155.224 C34.698,155.224 0,120.476 0,77.612" id="path-47"></path>
        <path d="M77.5,0 C120.302,0 155,34.748 155,77.612 C155,120.476 120.302,155.224 77.5,155.224 C34.698,155.224 0,120.476 0,77.612" id="path-49"></path>
        <path d="M77.5,0 C120.302,0 155,34.748 155,77.612 C155,120.476 120.302,155.224 77.5,155.224 C34.698,155.224 0,120.476 0,77.612" id="path-51"></path>
        <path d="M77.5,0 C120.302,0 155,34.748 155,77.612 C155,120.476 120.302,155.224 77.5,155.224 C34.698,155.224 0,120.476 0,77.612" id="path-53"></path>
        <path d="M77.5,0 C120.302,0 155,34.748 155,77.612 C155,120.476 120.302,155.224 77.5,155.224 C34.698,155.224 0,120.476 0,77.612" id="path-55"></path>
        <path d="M77.5,0 C120.302,0 155,34.748 155,77.612 C155,120.476 120.302,155.224 77.5,155.224 C34.698,155.224 0,120.476 0,77.612" id="path-57"></path>
        <path d="M77.5,0 C120.302,0 155,34.748 155,77.612 C155,120.476 120.302,155.224 77.5,155.224 C34.698,155.224 0,120.476 0,77.612" id="path-59"></path>
        <path d="M77.5,0 C120.302,0 155,34.748 155,77.612 C155,120.476 120.302,155.224 77.5,155.224 C34.698,155.224 0,120.476 0,77.612" id="path-61"></path>
        <path d="M77.5,0 C120.302,0 155,34.748 155,77.612 C155,120.476 120.302,155.224 77.5,155.224 C34.698,155.224 0,120.476 0,77.612 C0,34.748 34.698,0 77.5,0 Z" id="path-63"></path>
        <polygon id="path-65" points="0.144 0.007 12.482 0.007 12.482 5.961 0.144 5.961"></polygon>
        <path d="M77.5,0 C120.302,0 155,34.748 155,77.612 C155,120.476 120.302,155.224 77.5,155.224 C34.698,155.224 0,120.476 0,77.612" id="path-67"></path>
        <path d="M77.5,0 C120.302,0 155,34.748 155,77.612 C155,120.476 120.302,155.224 77.5,155.224 C34.698,155.224 0,120.476 0,77.612" id="path-69"></path>
        <path d="M77.5,0 C120.302,0 155,34.748 155,77.612 C155,120.476 120.302,155.224 77.5,155.224 C34.698,155.224 0,120.476 0,77.612" id="path-71"></path>
        <path d="M77.5,0 C120.302,0 155,34.748 155,77.612 C155,120.476 120.302,155.224 77.5,155.224 C34.698,155.224 0,120.476 0,77.612 C0,34.748 34.698,0 77.5,0 Z" id="path-73"></path>
        <path d="M77.5,0 C120.302,0 155,34.748 155,77.612 C155,120.476 120.302,155.224 77.5,155.224 C34.698,155.224 0,120.476 0,77.612" id="path-75"></path>
        <path d="M77.5,0 C120.302,0 155,34.748 155,77.612 C155,120.476 120.302,155.224 77.5,155.224 C34.698,155.224 0,120.476 0,77.612" id="path-77"></path>
        <path d="M77.5,0 C120.302,0 155,34.748 155,77.612 C155,120.476 120.302,155.224 77.5,155.224 C34.698,155.224 0,120.476 0,77.612" id="path-79"></path>
        <path d="M77.5,0 C120.302,0 155,34.748 155,77.612 C155,120.476 120.302,155.224 77.5,155.224 C34.698,155.224 0,120.476 0,77.612 C0,34.748 34.698,0 77.5,0 Z" id="path-81"></path>
        <polygon id="path-83" points="0.023 0.084 45.395 0.084 45.395 6.102 0.023 6.102"></polygon>
        <path d="M77.5,0 C120.302,0 155,34.748 155,77.612 C155,120.476 120.302,155.224 77.5,155.224 C34.698,155.224 0,120.476 0,77.612" id="path-85"></path>
        <path d="M77.5,0 C120.302,0 155,34.748 155,77.612 C155,120.476 120.302,155.224 77.5,155.224 C34.698,155.224 0,120.476 0,77.612 C0,34.748 34.698,0 77.5,0 Z" id="path-87"></path>
        <path d="M77.5,0 C120.302,0 155,34.748 155,77.612 C155,120.476 120.302,155.224 77.5,155.224 C34.698,155.224 0,120.476 0,77.612 C0,34.748 34.698,0 77.5,0 Z" id="path-89"></path>
        <polygon id="path-91" points="0.06 0.056 11.772 0.056 11.772 5.095 0.06 5.095"></polygon>
        <path d="M11.892,0.086 L11.892,5.723 L3.182,5.725 C2.11,5.068 1.054,4.385 0.016,3.678 L0.016,0.086 L11.892,0.086 Z" id="path-93"></path>
        <polygon id="path-95" points="0.138 0.121 10.437 0.121 10.437 3.633 0.138 3.633"></polygon>
        <path d="M77.5,0 C120.302,0 155,34.748 155,77.612 C155,120.476 120.302,155.224 77.5,155.224 C34.698,155.224 0,120.476 0,77.612 C0,34.748 34.698,0 77.5,0 Z" id="path-97"></path>
        <path d="M77.5,0 C120.302,0 155,34.748 155,77.612 C155,120.476 120.302,155.224 77.5,155.224 C34.698,155.224 0,120.476 0,77.612 C0,34.748 34.698,0 77.5,0 Z" id="path-99"></path>
        <path d="M77.5,0 C120.302,0 155,34.748 155,77.612 C155,120.476 120.302,155.224 77.5,155.224 C34.698,155.224 0,120.476 0,77.612 C0,34.748 34.698,0 77.5,0 Z" id="path-101"></path>
        <path d="M77.5,0 C120.302,0 155,34.748 155,77.612 C155,120.476 120.302,155.224 77.5,155.224 C34.698,155.224 0,120.476 0,77.612 C0,34.748 34.698,0 77.5,0 Z" id="path-103"></path>
        <path d="M77.5,0 C120.302,0 155,34.748 155,77.612 C155,120.476 120.302,155.224 77.5,155.224 C34.698,155.224 0,120.476 0,77.612 C0,34.748 34.698,0 77.5,0 Z" id="path-105"></path>
        <path d="M77.5,0 C120.302,0 155,34.748 155,77.612 C155,120.476 120.302,155.224 77.5,155.224 C34.698,155.224 0,120.476 0,77.612 C0,34.748 34.698,0 77.5,0 Z" id="path-107"></path>
        <polygon id="path-109" points="0.005 0.047 23.938 0.047 23.938 30.855 0.005 30.855"></polygon>
        <path d="M77.5,0 C120.302,0 155,34.748 155,77.612 C155,120.476 120.302,155.224 77.5,155.224 C34.698,155.224 0,120.476 0,77.612 C0,34.748 34.698,0 77.5,0 Z" id="path-111"></path>
        <path d="M77.5,0 C120.302,0 155,34.748 155,77.612 C155,120.476 120.302,155.224 77.5,155.224 C34.698,155.224 0,120.476 0,77.612 C0,34.748 34.698,0 77.5,0 Z" id="path-113"></path>
        <path d="M77.5,0 C120.302,0 155,34.748 155,77.612 C155,120.476 120.302,155.224 77.5,155.224 C34.698,155.224 0,120.476 0,77.612" id="path-115"></path>
        <path d="M77.5,0 C120.302,0 155,34.748 155,77.612 C155,120.476 120.302,155.224 77.5,155.224 C34.698,155.224 0,120.476 0,77.612" id="path-117"></path>
        <path d="M77.5,0 C120.302,0 155,34.748 155,77.612 C155,120.476 120.302,155.224 77.5,155.224 C34.698,155.224 0,120.476 0,77.612" id="path-119"></path>
        <path d="M77.5,0 C120.302,0 155,34.748 155,77.612 C155,120.476 120.302,155.224 77.5,155.224 C34.698,155.224 0,120.476 0,77.612" id="path-121"></path>
        <path d="M77.5,0 C120.302,0 155,34.748 155,77.612 C155,120.476 120.302,155.224 77.5,155.224 C34.698,155.224 0,120.476 0,77.612" id="path-123"></path>
        <path d="M77.5,0 C120.302,0 155,34.748 155,77.612 C155,120.476 120.302,155.224 77.5,155.224 C34.698,155.224 0,120.476 0,77.612" id="path-125"></path>
        <path d="M77.5,0 C120.302,0 155,34.748 155,77.612 C155,120.476 120.302,155.224 77.5,155.224 C34.698,155.224 0,120.476 0,77.612 C0,34.748 34.698,0 77.5,0 Z" id="path-127"></path>
    </defs>
    <g id="iOS" stroke="none" stroke-width="1" fill="none" fill-rule="evenodd">
        <g id="social-distance">
            <circle id="Oval" fill="#D2F0EA" fill-rule="nonzero" cx="72.5" cy="72.5" r="72.5"></circle>
            <g id="Clipped">
                <mask id="mask-2" fill="white">
                    <use xlink:href="#path-1"></use>
                </mask>
                <g id="prefix__a"></g>
                <path d="M138.736,-8.662 C168.734,-8.473 188.146,-28.812 214.767,-38.22 C224.142,-41.533 234.541,-42.785 244.036,-39.837 C253.304,-36.959 261.142,-30.163 266.016,-21.761 C277.531,-1.913 272.309,17.606 260.465,35.327 C255.985,42.031 252.134,50.302 254.734,57.937 C257.322,65.539 265.599,70.163 267.992,77.828 C271.942,90.481 259.23,103.663 257.482,115.969 C255.469,130.145 255.678,145.855 242.182,154.669 C220.648,168.734 183.842,155.061 160.583,152.394 C142.299,150.297 123.799,149.298 105.426,150.781 C87.326,152.241 70.437,157.248 52.152,156.6 C15.878,155.314 -22.11,132.119 -37.862,98.834 C-58.552,55.113 -22.039,14.251 15.365,-3.596 C41.931,-16.272 67.215,-15.97 95.525,-12.876 C109.921,-11.302 124.443,-8.753 138.735,-8.662" id="Path" fill="#D2F0EA" fill-rule="nonzero" mask="url(#mask-2)"></path>
            </g>
            <g id="Clipped">
                <mask id="mask-4" fill="white">
                    <use xlink:href="#path-3"></use>
                </mask>
                <g id="prefix__c"></g>
                <path d="M123.238,119.027 C124.55,110.607 124.081,102.275 122.824,94.043 C122.511,91.985 122.153,89.933 121.77,87.883 C121.576,86.858 121.38,85.833 121.175,84.809 C120.972,83.785 120.766,82.759 120.539,81.738 C119.673,77.642 118.625,73.568 117.345,69.56 C116.068,65.552 114.624,61.591 113.039,57.684 C111.469,53.769 109.759,49.906 107.902,46.112 C106.057,42.311 104.062,38.58 101.92,34.932 C100.85,33.107 99.735,31.308 98.574,29.537 C97.418,27.764 96.214,26.02 94.95,24.317 L95.254,24.074 C96.636,25.693 97.965,27.36 99.249,29.063 C100.527,30.769 101.759,32.511 102.951,34.28 C105.332,37.822 107.543,41.48 109.626,45.21 C111.696,48.95 113.624,52.77 115.414,56.658 C117.186,60.555 118.819,64.52 120.29,68.551 C121.754,72.584 123.128,76.663 124.28,80.821 C125.425,84.98 126.26,89.241 126.685,93.558 C127.109,97.873 127.18,102.243 126.742,106.571 C126.52,108.734 126.172,110.885 125.662,112.994 L125.467,113.783 L125.249,114.566 C125.107,115.088 124.942,115.605 124.771,116.118 L124.645,116.502 L124.507,116.884 L124.23,117.644 C124.139,117.897 124.027,118.144 123.926,118.394 C123.823,118.644 123.718,118.891 123.611,119.137 L123.238,119.027 L123.238,119.027 Z" id="Path" fill="#AFE5D9" fill-rule="nonzero" mask="url(#mask-4)"></path>
            </g>
            <g id="Clipped">
                <mask id="mask-6" fill="white">
                    <use xlink:href="#path-5"></use>
                </mask>
                <g id="prefix__e"></g>
                <path d="M86.869,60.012 C88.165,61.445 89.605,62.701 91.189,63.737 C92.926,64.875 94.586,65.669 96.157,66.193 C98.56,60.948 103.293,54.113 107.749,52.936 C110.714,56.976 104.448,63.396 99.514,66.931 C109.28,67.957 114.96,58.591 114.96,58.591 C114.96,58.591 126.805,56.584 130.089,46.946 C124.852,49.975 116.754,52.909 114.311,48.652 C117.142,45.097 125.098,43.51 130.841,43.379 C130.996,41.763 130.933,39.976 130.593,38.009 C130.261,36.08 129.707,34.219 128.965,32.435 C123.479,33.948 117.734,39.745 111.977,37.65 C111.727,34.108 121.487,29.391 126.66,27.984 C124.601,24.711 119.781,19.879 116.757,17.34 C113.354,20.786 109.077,31.326 106.645,28.84 C105.353,27.518 108.419,17.492 110.102,13.394 C106.467,11.513 102.714,10.149 99.166,9.374 C99.556,13.237 100.269,17.541 96.412,18.946 C94.342,15.983 95.522,12.103 93.614,8.65 C90.122,8.527 87.07,9.143 84.856,10.589 C82.639,12.036 80.896,14.651 79.67,17.991 C82.069,20.989 85.99,21.508 87.829,24.551 C85.067,27.436 81.539,25.251 78.246,23.366 C77.616,26.857 77.406,30.743 77.641,34.718 C81.978,34.885 88.056,35.442 88.731,37.132 C89.992,40.295 83.076,41.07 78.573,42.821 C79.61,46.707 81.843,52.754 83.839,55.968 C87.185,51.802 95.487,44.691 98.639,46.359 C98.226,52.566 90.394,55.487 86.869,60.012" id="Path" fill="#3FC0A4" fill-rule="nonzero" mask="url(#mask-6)"></path>
            </g>
            <g id="Group" transform="translate(94.860000, 24.060000)">
                <g id="Clipped">
                    <mask id="mask-8" fill="white">
                        <use xlink:href="#path-7"></use>
                    </mask>
                    <g id="prefix__g"></g>
                    <path d="M28.378,94.967 C29.69,86.548 29.221,78.216 27.964,69.983 C27.651,67.925 27.293,65.873 26.91,63.823 C26.716,62.799 26.52,61.773 26.315,60.749 C26.112,59.725 25.906,58.699 25.679,57.678 C24.813,53.583 23.765,49.508 22.485,45.501 C21.208,41.493 19.764,37.531 18.179,33.624 C16.609,29.709 14.899,25.847 13.042,22.052 C11.197,18.252 9.202,14.52 7.06,10.872 C5.99,9.047 4.875,7.248 3.714,5.477 C2.558,3.704 1.354,1.96 0.09,0.258 L0.394,0.015 C1.776,1.633 3.105,3.3 4.389,5.003 C5.667,6.709 6.899,8.45 8.09,10.22 C10.471,13.762 12.682,17.42 14.765,21.15 C16.835,24.89 18.763,28.71 20.553,32.598 C22.325,36.495 23.958,40.46 25.429,44.491 C26.893,48.525 28.267,52.603 29.419,56.761 C30.564,60.921 31.399,65.181 31.824,69.499 C32.248,73.814 32.319,78.183 31.881,82.512 C31.659,84.674 31.311,86.825 30.801,88.934 L30.606,89.723 L30.388,90.506 C30.246,91.028 30.081,91.545 29.91,92.058 L29.784,92.443 L29.646,92.824 L29.369,93.584 C29.278,93.838 29.166,94.085 29.065,94.334 C28.962,94.584 28.857,94.831 28.75,95.078 L28.377,94.967 L28.378,94.967 Z" id="Path" fill="#45C2A7" fill-rule="nonzero" mask="url(#mask-8)"></path>
                </g>
            </g>
            <g id="Clipped">
                <mask id="mask-10" fill="white">
                    <use xlink:href="#path-9"></use>
                </mask>
                <g id="prefix__i"></g>
                <path d="M133.38,115.693 C132.144,112.868 131.472,109.791 131.157,106.703 C130.847,103.607 130.897,100.482 131.202,97.396 C131.506,94.308 132.105,91.261 132.922,88.286 C133.748,85.311 134.731,82.395 135.778,79.51 C136.832,76.627 138.004,73.792 139.274,71.006 C140.557,68.226 141.939,65.496 143.42,62.822 C144.913,60.155 146.503,57.544 148.205,55.011 L148.845,54.061 L149.505,53.127 C149.725,52.817 149.94,52.501 150.167,52.195 L150.849,51.275 C151.299,50.661 151.782,50.07 152.25,49.469 C152.483,49.168 152.73,48.878 152.974,48.585 L153.704,47.707 L153.922,47.882 C150.333,52.772 147.291,58.03 144.653,63.467 C143.324,66.181 142.097,68.942 140.973,71.741 C139.836,74.535 138.8,77.367 137.883,80.233 C136.968,83.099 136.218,86.013 135.599,88.943 C135.424,89.671 135.294,90.407 135.143,91.139 C135.069,91.505 134.983,91.869 134.919,92.237 C134.853,92.604 134.79,92.972 134.719,93.337 L134.509,94.437 L134.322,95.538 L134.129,96.639 L133.964,97.743 C133.064,103.631 132.724,109.588 133.647,115.613 L133.38,115.693 L133.38,115.693 Z" id="Path" fill="#AFE5D9" fill-rule="nonzero" mask="url(#mask-10)"></path>
            </g>
            <g id="Clipped">
                <mask id="mask-12" fill="white">
                    <use xlink:href="#path-11"></use>
                </mask>
                <g id="prefix__k"></g>
                <path d="M159.687,73.417 C158.759,74.442 157.729,75.339 156.596,76.079 C155.352,76.892 154.165,77.46 153.041,77.834 C151.324,74.081 150.491,72.482 147.304,71.639 C145.181,74.527 147.112,75.83 150.639,78.361 C143.653,79.091 139.594,72.388 139.594,72.388 C139.594,72.388 131.122,70.948 128.778,64.052 C132.522,66.221 136.332,67.529 138.081,64.485 C136.058,61.941 132.349,61.597 128.241,61.5 C128.131,60.344 128.177,59.066 128.421,57.66 C128.659,56.28 129.056,54.949 129.588,53.673 C137.961,56.889 139.888,54.839 131.238,50.49 C132.712,48.15 135.801,45.666 137.965,43.851 C140.398,46.317 145.001,54.326 146.742,52.548 C147.667,51.603 142.293,43.905 141.092,40.973 C143.692,39.63 148.374,37.743 150.913,37.191 C150.633,39.953 151.084,43.144 151.807,45.193 C153.289,43.075 153.519,39.144 154.885,36.675 C157.382,36.589 159.565,37.031 161.148,38.065 C162.733,39.102 163.979,40.973 164.854,43.363 C163.137,45.506 159.504,47.359 158.188,49.534 C159.976,50.226 163.514,48.555 165.871,47.208 C166.321,49.706 166.536,55.614 166.367,58.456 C163.264,58.574 155.662,56.332 155.178,57.54 C154.275,59.802 161.841,61.775 165.061,63.029 C164.318,65.809 163.286,68.228 161.856,70.526 C153.814,64.244 153.814,68.223 159.687,73.416" id="Path" fill="#3FC0A4" fill-rule="nonzero" mask="url(#mask-12)"></path>
            </g>
            <g id="Group" transform="translate(130.820000, 47.654000)">
                <g id="Clipped">
                    <mask id="mask-14" fill="white">
                        <use xlink:href="#path-13"></use>
                    </mask>
                    <g id="prefix__m"></g>
                    <path d="M2.56,68.039 C1.324,65.215 0.652,62.137 0.337,59.049 C0.027,55.953 0.077,52.829 0.382,49.742 C0.686,46.654 1.285,43.607 2.102,40.632 C2.928,37.658 3.911,34.741 4.958,31.856 C6.012,28.973 7.184,26.139 8.454,23.353 C9.737,20.573 11.119,17.842 12.6,15.168 C14.093,12.501 15.683,9.89 17.385,7.357 L18.025,6.408 L18.685,5.473 C18.905,5.163 19.12,4.847 19.347,4.541 L20.029,3.622 C20.479,3.007 20.962,2.416 21.43,1.816 C21.663,1.514 21.91,1.224 22.154,0.931 L22.884,0.054 L23.102,0.228 C19.513,5.118 16.471,10.377 13.833,15.814 C12.504,18.527 11.277,21.288 10.153,24.087 C9.016,26.881 7.98,29.713 7.063,32.579 C6.148,35.446 5.398,38.359 4.779,41.289 C4.604,42.017 4.474,42.754 4.323,43.485 C4.249,43.852 4.163,44.215 4.099,44.583 C4.033,44.95 3.97,45.318 3.899,45.684 L3.689,46.784 L3.502,47.884 L3.309,48.986 L3.144,50.089 C2.244,55.977 1.904,61.934 2.827,67.959 L2.56,68.039 L2.56,68.039 Z" id="Path" fill="#45C2A7" fill-rule="nonzero" mask="url(#mask-14)"></path>
                </g>
            </g>
            <g id="Clipped">
                <mask id="mask-16" fill="white">
                    <use xlink:href="#path-15"></use>
                </mask>
                <g id="prefix__o"></g>
                <polygon id="Path" fill="#F8DAAF" fill-rule="nonzero" mask="url(#mask-16)" points="243.576 126.345 231.263 206.5 -117.355 206.5 -129.668 126.345 -95.946 126.345 -102.028 84.157 215.932 84.157 209.854 126.345"></polygon>
            </g>
            <g id="Group" transform="translate(98.115000, 91.737000)">
                <g id="Clipped">
                    <mask id="mask-18" fill="white">
                        <use xlink:href="#path-17"></use>
                    </mask>
                    <g id="prefix__q"></g>
                    <path d="M0.214,0.096 C1.314,5.282 2.224,10.512 2.894,15.776 C3.55,21.043 3.965,26.343 4.082,31.656 C4.142,34.311 4.127,36.969 4.041,39.626 C4.029,39.959 4.025,40.292 4.006,40.623 L3.945,41.619 L3.82,43.609 C3.783,44.274 3.713,44.935 3.643,45.596 L3.433,47.58 C3.369,48.242 3.259,48.898 3.168,49.557 L2.88,51.53 L2.806,52.023 L2.716,52.513 L2.534,53.494 L2.166,55.454 C1.897,56.754 1.58,58.046 1.283,59.339 C1.117,59.982 0.931,60.62 0.755,61.26 C0.58,61.9 0.4,62.538 0.214,63.175 L0.132,63.154 C0.377,61.849 0.661,60.557 0.909,59.257 L1.248,57.301 L1.421,56.325 C1.478,55.999 1.542,55.675 1.584,55.347 L1.871,53.386 L2.017,52.406 L2.09,51.916 L2.147,51.423 L2.382,49.456 C2.457,48.8 2.55,48.146 2.598,47.487 L2.78,45.515 L2.876,44.53 C2.912,44.202 2.923,43.871 2.948,43.542 L3.091,41.566 L3.164,40.579 C3.186,40.249 3.194,39.919 3.21,39.589 L3.305,37.61 L3.352,36.62 C3.362,36.29 3.366,35.96 3.372,35.63 L3.404,33.647 L3.421,32.656 L3.41,31.664 C3.378,26.376 3.048,21.088 2.477,15.826 C1.919,10.56 1.12,5.319 0.132,0.113 L0.214,0.096 Z" id="Path" fill="#EEAC4C" fill-rule="nonzero" mask="url(#mask-18)"></path>
                </g>
            </g>
            <g id="Group" transform="translate(17.050000, 126.197000)">
                <g id="Clipped">
                    <mask id="mask-20" fill="white">
                        <use xlink:href="#path-19"></use>
                    </mask>
                    <g id="prefix__s"></g>
                    <polygon id="Path" fill="#F2BD70" fill-rule="nonzero" mask="url(#mask-20)" points="198.77 0.148 191.998 38.347 -112.19 38.347 -118.962 0.148 -112.602 0.148 -107.401 30.985 187.688 30.985 192.889 0.148"></polygon>
                </g>
            </g>
            <g id="Clipped">
                <mask id="mask-22" fill="white">
                    <use xlink:href="#path-21"></use>
                </mask>
                <g id="prefix__u"></g>
                <path d="M63.95,162.757 C42.262,162.965 20.96,159.846 0.062,153.212 C-0.474,130.452 2.444,109.025 9.593,89.232 C30.872,90.069 52.166,92.909 73.482,98.776 C75.023,119.033 72.07,140.309 63.951,162.756" id="Path" fill="#F1F1F2" fill-rule="nonzero" mask="url(#mask-22)"></path>
            </g>
            <g id="Clipped">
                <mask id="mask-24" fill="white">
                    <use xlink:href="#path-23"></use>
                </mask>
                <g id="prefix__w"></g>
                <path d="M124.58,64.365 C123.162,66.055 121.365,73.296 120.994,77.373 L131.674,79.016 C132.118,73.643 128.958,65.066 125.336,64.123 C125.059,64.051 124.764,64.146 124.581,64.365" id="Path" fill="#303130" fill-rule="nonzero" mask="url(#mask-24)"></path>
            </g>
            <g id="Clipped">
                <mask id="mask-26" fill="white">
                    <use xlink:href="#path-25"></use>
                </mask>
                <g id="prefix__y"></g>
                <path d="M150.76,149.12 C150.76,144.7 147.182,141.117 142.768,141.117 C138.355,141.117 134.776,144.7 134.776,149.12 C134.776,153.54 138.355,157.124 142.768,157.124 C147.182,157.124 150.761,153.541 150.761,149.12" id="Path" fill="#383B3F" fill-rule="nonzero" mask="url(#mask-26)"></path>
            </g>
            <g id="Clipped">
                <mask id="mask-28" fill="white">
                    <use xlink:href="#path-27"></use>
                </mask>
                <g id="prefix__A"></g>
                <path d="M139.112,155.731 L155.108,155.731 L155.108,160.28 L133.124,160.28 C133.144,159.34 133.543,158.508 134.23,157.758 C135.468,156.407 137.28,155.731 139.112,155.731" id="Path" fill="#383B3F" fill-rule="nonzero" mask="url(#mask-28)"></path>
            </g>
            <g id="Clipped">
                <mask id="mask-30" fill="white">
                    <use xlink:href="#path-29"></use>
                </mask>
                <g id="prefix__C"></g>
                <path d="M154.369,149.12 C154.369,144.7 150.79,141.117 146.377,141.117 C141.963,141.117 138.384,144.7 138.384,149.12 C138.384,153.54 141.963,157.124 146.377,157.124 C150.79,157.124 154.369,153.541 154.369,149.12" id="Path" fill="#5E6063" fill-rule="nonzero" mask="url(#mask-30)"></path>
            </g>
            <g id="Clipped">
                <mask id="mask-32" fill="white">
                    <use xlink:href="#path-31"></use>
                </mask>
                <g id="prefix__E"></g>
                <path d="M142.72,155.731 L158.716,155.731 L158.716,160.28 L136.732,160.28 C136.752,159.34 137.151,158.508 137.838,157.758 C139.076,156.407 140.888,155.731 142.72,155.731" id="Path" fill="#5E6063" fill-rule="nonzero" mask="url(#mask-32)"></path>
            </g>
            <g id="Clipped">
                <mask id="mask-34" fill="white">
                    <use xlink:href="#path-33"></use>
                </mask>
                <g id="prefix__G"></g>
                <path d="M106.872,157.124 L100.39,157.124 C106.082,152.62 111.321,135.571 114.914,118.894 L122.988,120.164 L106.872,157.124 Z" id="Path" fill="#383B3F" fill-rule="nonzero" mask="url(#mask-34)"></path>
            </g>
            <g id="Clipped">
                <mask id="mask-36" fill="white">
                    <use xlink:href="#path-35"></use>
                </mask>
                <g id="prefix__I"></g>
                <path d="M105.279,160.28 L97.416,160.28 C96.974,159.516 97.077,158.589 97.506,157.746 C98.154,156.472 99.526,155.731 100.954,155.731 L107.584,155.731 L105.279,160.28 L105.279,160.28 Z" id="Path" fill="#383B3F" fill-rule="nonzero" mask="url(#mask-36)"></path>
            </g>
            <g id="Clipped">
                <mask id="mask-38" fill="white">
                    <use xlink:href="#path-37"></use>
                </mask>
                <g id="prefix__K"></g>
                <path d="M111.525,157.124 L105.961,157.124 C109.96,150.938 114.718,137.78 117.899,123.722 L125.395,123.722 L114.107,155.303 C113.717,156.395 112.683,157.124 111.525,157.124" id="Path" fill="#5E6063" fill-rule="nonzero" mask="url(#mask-38)"></path>
            </g>
            <g id="Clipped">
                <mask id="mask-40" fill="white">
                    <use xlink:href="#path-39"></use>
                </mask>
                <g id="prefix__M"></g>
                <path d="M107.557,160.28 L102.643,160.28 C102.239,159.581 102.29,158.747 102.63,157.965 C103.229,156.585 104.63,155.731 106.133,155.731 L113.954,155.731 C113.004,158.455 110.438,160.28 107.557,160.28" id="Path" fill="#5E6063" fill-rule="nonzero" mask="url(#mask-40)"></path>
            </g>
            <g id="Clipped">
                <mask id="mask-42" fill="white">
                    <use xlink:href="#path-41"></use>
                </mask>
                <g id="prefix__O"></g>
                <path d="M130.774,79.805 C129.094,76.327 125.538,73.929 121.421,73.929 C115.686,73.929 111.037,78.585 111.037,84.328 C111.037,90.071 115.687,94.727 121.421,94.727 C127.156,94.727 131.805,90.071 131.805,84.328 C131.805,82.707 131.435,81.173 130.775,79.805" id="Path" fill="#5E6063" fill-rule="nonzero" mask="url(#mask-42)"></path>
            </g>
            <g id="Clipped">
                <mask id="mask-44" fill="white">
                    <use xlink:href="#path-43"></use>
                </mask>
                <g id="prefix__Q"></g>
                <path d="M119.895,74.073 L113.912,91.157 L106.87,87.606 C101.465,84.874 98.062,81.244 97.76,75.392 C97.746,75.104 97.739,74.817 97.739,74.522 L97.854,72.89 C97.947,71.51 99.333,70.576 100.639,71.043 C101.156,71.23 101.659,71.424 102.147,71.618 C105.097,72.826 107.624,74.178 110.761,74.414 C114.515,74.702 115.976,74.705 119.895,74.073" id="Path" fill="#5E6063" fill-rule="nonzero" mask="url(#mask-44)"></path>
            </g>
            <g id="Clipped">
                <mask id="mask-46" fill="white">
                    <use xlink:href="#path-45"></use>
                </mask>
                <g id="prefix__S"></g>
                <path d="M102.154,71.79 C102.154,73.818 100.51,75.464 98.485,75.464 C98.235,75.464 97.997,75.442 97.761,75.392 C97.746,75.105 97.739,74.817 97.739,74.522 L97.854,72.89 C97.947,71.51 99.333,70.575 100.639,71.043 C101.156,71.23 101.659,71.423 102.147,71.618 C102.154,71.675 102.154,71.733 102.154,71.79" id="Path" fill="#303130" fill-rule="nonzero" mask="url(#mask-46)"></path>
            </g>
            <g id="Clipped">
                <mask id="mask-48" fill="white">
                    <use xlink:href="#path-47"></use>
                </mask>
                <g id="prefix__U"></g>
                <path d="M168.86,148.765 L167.892,149.76 L160.026,160.262 C156.083,160.349 152.073,160.304 148.732,160.281 C146.438,153.713 148.039,132.847 129.635,132.847 C117.88,132.847 106.418,123.143 108.353,111.533 C109.265,106.063 109.563,105.556 111.636,99.579 L112.358,97.477 C112.603,96.759 112.868,95.975 113.156,95.117 C113.729,93.409 113.849,91.411 112.149,89.575 L125.132,91.022 L129.174,91.411 C129.007,92.487 128.921,93.586 128.921,94.709 C128.921,95.592 128.999,96.464 129.15,97.325 C129.28,98.085 129.466,98.835 129.703,99.576 C132.788,109.249 144.386,117.386 153.548,121.636 C167.752,128.227 174.015,138.186 168.86,148.765" id="Path" fill="#5E6063" fill-rule="nonzero" mask="url(#mask-48)"></path>
            </g>
            <g id="Clipped">
                <mask id="mask-50" fill="white">
                    <use xlink:href="#path-49"></use>
                </mask>
                <g id="prefix__W"></g>
                <path d="M128.923,93.963 C131.575,92.589 134.937,87.505 134.403,81.543 C134.374,81.235 134.289,80.933 134.159,80.651 C132.626,77.341 126.963,75.104 125.973,76.358 C128.28,84.131 124.807,91.893 128.125,93.939 C128.365,94.087 128.672,94.093 128.923,93.963" id="Path" fill="#383B3F" fill-rule="nonzero" mask="url(#mask-50)"></path>
            </g>
            <g id="Clipped">
                <mask id="mask-52" fill="white">
                    <use xlink:href="#path-51"></use>
                </mask>
                <g id="prefix__Y"></g>
                <path d="M121.27,79.052 C121.012,79.749 120.342,80.245 119.557,80.245 C118.545,80.245 117.729,79.425 117.729,78.415 C117.729,77.585 118.282,76.882 119.041,76.66 C118.965,76.858 118.926,77.072 118.926,77.294 C118.926,78.304 119.745,79.124 120.754,79.124 C120.934,79.124 121.106,79.099 121.27,79.052" id="Path" fill="#303130" fill-rule="nonzero" mask="url(#mask-52)"></path>
            </g>
            <g id="Group">
                <g id="Clipped">
                    <mask id="mask-54" fill="white">
                        <use xlink:href="#path-53"></use>
                    </mask>
                    <g id="prefix__aa"></g>
                    <path d="M129.703,99.576 C127.528,101.812 124.287,103.232 120.668,103.232 C117.048,103.232 113.81,101.814 111.636,99.579 L112.358,97.477 C114.496,99.318 117.432,100.454 120.668,100.454 C123.992,100.454 126.998,99.255 129.15,97.325 C129.28,98.085 129.466,98.835 129.703,99.576" id="Path" fill="#E75A71" fill-rule="nonzero" mask="url(#mask-54)"></path>
                </g>
            </g>
            <g id="Group">
                <g id="Clipped">
                    <mask id="mask-56" fill="white">
                        <use xlink:href="#path-55"></use>
                    </mask>
                    <g id="prefix__ac"></g>
                    <path d="M137.972,126.282 C140.196,129.652 145.168,127.989 148.812,127.142 C152.46,126.295 153.319,124.639 156.794,123.242 C152.287,121.136 147.852,118.84 143.754,116.02 C139.654,113.2 135.886,109.841 132.936,105.832 C132.802,105.649 132.642,105.449 132.416,105.428 C132.11,105.4 131.892,105.712 131.756,105.988 C129.42,110.724 129.959,115.292 133.124,117.988 C136.289,120.686 137.207,125.122 137.972,126.282" id="Path" fill="#9E9FA1" fill-rule="nonzero" mask="url(#mask-56)"></path>
                </g>
            </g>
            <g id="Group">
                <g id="Clipped">
                    <mask id="mask-58" fill="white">
                        <use xlink:href="#path-57"></use>
                    </mask>
                    <g id="prefix__ae"></g>
                    <path d="M152.06,137.778 C152.533,137.626 153.027,137.536 153.527,137.51 C156.352,137.359 158.272,138.687 159.787,141.04 C161.007,142.931 161.418,145.327 160.9,147.519 C160.429,149.516 159.113,151.389 157.205,152.141 C155.298,152.893 152.833,152.266 151.811,150.487 C150.239,147.753 152.465,143.943 150.83,141.247 C150.258,140.305 149.492,139.265 150.695,138.444 C151.118,138.155 151.578,137.934 152.06,137.778" id="Path" fill="#9E9FA1" fill-rule="nonzero" mask="url(#mask-58)"></path>
                </g>
            </g>
            <g id="Group">
                <g id="Clipped">
                    <mask id="mask-60" fill="white">
                        <use xlink:href="#path-59"></use>
                    </mask>
                    <g id="prefix__ag"></g>
                    <path d="M112.972,100.454 C112.509,101.654 111.558,102.406 110.85,102.131 C110.141,101.857 109.943,100.661 110.406,99.461 C110.87,98.26 111.82,97.509 112.528,97.783 C113.237,98.058 113.435,99.253 112.972,100.453" id="Path" fill="#FFFFFF" fill-rule="nonzero" mask="url(#mask-60)"></path>
                </g>
            </g>
            <g id="Group">
                <g id="Clipped">
                    <mask id="mask-62" fill="white">
                        <use xlink:href="#path-61"></use>
                    </mask>
                    <g id="prefix__ai"></g>
                    <path d="M123.236,123.392 C123.088,122.987 122.954,122.59 122.84,122.243 C122.435,121.01 122.703,119.761 123.864,119.066 C124.511,118.678 125.28,118.533 126.034,118.523 C126.586,118.516 127.155,118.583 127.641,118.847 C128.045,119.065 128.367,119.407 128.667,119.754 C130.699,122.1 130.052,125.881 126.583,126.351 C125.613,126.483 124.528,126.101 124.046,125.247 C123.756,124.734 123.477,124.053 123.236,123.392" id="Path" fill="#9E9FA1" fill-rule="nonzero" mask="url(#mask-62)"></path>
                </g>
            </g>
            <g id="Group">
                <g id="Clipped">
                    <mask id="mask-64" fill="white">
                        <use xlink:href="#path-63"></use>
                    </mask>
                    <g id="prefix__ak"></g>
                    <polygon id="Path" fill="#D49771" fill-rule="nonzero" mask="url(#mask-64)" points="46.074 84.478 66.475 84.478 60.787 56.269 51.762 56.269"></polygon>
                </g>
            </g>
            <g id="Group" transform="translate(50.375000, 60.693000)">
                <g id="Clipped">
                    <mask id="mask-66" fill="white">
                        <use xlink:href="#path-65"></use>
                    </mask>
                    <g id="prefix__am"></g>
                    <path d="M12.482,5.844 C9.786,6.317 3.083,5.432 0.144,1.742 L0.409,0.424 C2.177,1.174 3.939,1.614 5.894,1.607 C7.884,1.601 9.509,0.749 11.305,0.007 L12.482,5.844 L12.482,5.844 Z" id="Path" fill="#D49771" fill-rule="nonzero" mask="url(#mask-66)"></path>
                </g>
            </g>
            <g id="Group">
                <g id="Clipped">
                    <mask id="mask-68" fill="white">
                        <use xlink:href="#path-67"></use>
                    </mask>
                    <g id="prefix__ao"></g>
                    <path d="M41.476,44.978 C41.417,53.548 47.763,62.614 55.668,62.5870602 C63.705,62.557 70.093,53.715 70.102023,45.177 C70.11,36.607 68.035,28.743 55.902,28.659 C43.771,28.574 41.536,36.409 41.476,44.979" id="Path" fill="#D49771" fill-rule="nonzero" mask="url(#mask-68)"></path>
                </g>
            </g>
            <g id="Group">
                <g id="Clipped">
                    <mask id="mask-70" fill="white">
                        <use xlink:href="#path-69"></use>
                    </mask>
                    <g id="prefix__aq"></g>
                    <path d="M39.57,44.638 C39.79,46.311 40.897,48.356 41.781,48.239 C42.665,48.122 43.201,46.67 42.981,44.996 C42.759,43.323 41.863,42.061 40.98,42.178 C40.096,42.295 39.348,42.964 39.57,44.638" id="Path" fill="#D49771" fill-rule="nonzero" mask="url(#mask-70)"></path>
                </g>
            </g>
            <g id="Group">
                <g id="Clipped">
                    <mask id="mask-72" fill="white">
                        <use xlink:href="#path-71"></use>
                    </mask>
                    <g id="prefix__as"></g>
                    <path d="M71.797,44.863 C71.635,46.543 70.602,48.627 69.714,48.541 C68.827,48.456 68.239,47.024 68.4,45.344 C68.562,43.664 69.412,42.37 70.3,42.455 C71.187,42.541 71.958,43.183 71.797,44.863" id="Path" fill="#D49771" fill-rule="nonzero" mask="url(#mask-72)"></path>
                </g>
            </g>
            <g id="Group">
                <g id="Clipped">
                    <mask id="mask-74" fill="white">
                        <use xlink:href="#path-73"></use>
                    </mask>
                    <g id="prefix__au"></g>
                    <path d="M28.514,86.982 L29.146,80.487 C29.772,77.545 31.958,75.159 34.872,74.258 L48.939,70.422 C49.513,75.415 62.503,75.449 63.64,70.422 L76.553,74.251 C79.467,75.154 81.653,77.537 82.276,80.479 L82.776,86.982 L28.514,86.982 L28.514,86.982 Z" id="Path" fill="#BBBDBF" fill-rule="nonzero" mask="url(#mask-74)"></path>
                </g>
            </g>
            <g id="Group">
                <g id="Clipped">
                    <mask id="mask-76" fill="white">
                        <use xlink:href="#path-75"></use>
                    </mask>
                    <g id="prefix__aw"></g>
                    <path d="M41.754,48.24 C41.668,48.249 41.58,48.236 41.492,48.205 C41.503,47.716 41.523,47.229 41.555,46.748 C41.6,47.247 41.667,47.745 41.754,48.24" id="Path" fill="#D49771" fill-rule="nonzero" mask="url(#mask-76)"></path>
                </g>
            </g>
            <g id="Group">
                <g id="Clipped">
                    <mask id="mask-78" fill="white">
                        <use xlink:href="#path-77"></use>
                    </mask>
                    <g id="prefix__ay"></g>
                    <path d="M70.1,48.453 C69.99,48.511 69.883,48.543 69.776,48.543 C69.898,47.907 69.986,47.266 70.039,46.623 C70.074,47.227 70.094,47.837 70.1,48.453" id="Path" fill="#D49771" fill-rule="nonzero" mask="url(#mask-78)"></path>
                </g>
            </g>
            <g id="Group">
                <g id="Clipped">
                    <mask id="mask-80" fill="white">
                        <use xlink:href="#path-79"></use>
                    </mask>
                    <g id="prefix__aA"></g>
                    <path d="M70.75,42.654 L69.836,46.314 C69.836,46.314 68.22,42.317 67.658,40.884 C67.169,39.64 66.59,37.043 66.655,35.736 C66.649,35.85 48.461,35.909 46.715,33.163 C46.993,33.599 43.205,43.394 41.855,46.313 L40.942,42.654 C40.484,40.236 40.215,37.813 40.015,35.364 C39.834,33.146 40.031,30.874 41.285,28.968 C42.629,26.928 46.103,24.832 48.375,24.187 C55.016,22.301 60.412,22.557 66.205,25.758 C72.371,29.167 72.239,36.692 70.75,42.654" id="Path" fill="#2A2A2B" fill-rule="nonzero" mask="url(#mask-80)"></path>
                </g>
            </g>
            <g id="Group">
                <g id="Clipped">
                    <mask id="mask-82" fill="white">
                        <use xlink:href="#path-81"></use>
                    </mask>
                    <g id="prefix__aC"></g>
                    <path d="M85.187,152.236 L33.652,160.096 L32.244,155.939 C30.834,151.779 30.685,147.294 31.814,143.049 L33.969,134.949 L34.044,132.023 L78.718,132.023 L79.341,135.439 L85.187,152.236 L85.187,152.236 Z" id="Path" fill="#4396D0" fill-rule="nonzero" mask="url(#mask-82)"></path>
                </g>
            </g>
            <g id="Group" transform="translate(33.945000, 131.940000)">
                <g id="Clipped">
                    <mask id="mask-84" fill="white">
                        <use xlink:href="#path-83"></use>
                    </mask>
                    <g id="prefix__aE"></g>
                    <path d="M45.395,3.5 C41.108,6.3 14.252,8.17 0.023,1.9 L0.097,0.084 L6.267,0.084 C15.278,1.617 24.326,1.514 33.768,0.084 L44.772,0.084 L45.395,3.501 L45.395,3.5 Z" id="Path" fill="#57A1D5" fill-rule="nonzero" mask="url(#mask-84)"></path>
                </g>
            </g>
            <g id="Group">
                <g id="Clipped">
                    <mask id="mask-86" fill="white">
                        <use xlink:href="#path-85"></use>
                    </mask>
                    <g id="prefix__aG"></g>
                    <path d="M32.594,113.667 L40.785,82.982 L29.151,79.942 L19.593,116.636 C19.349,117.574 19.875,118.535 20.79,118.851 C27.973,121.327 30.773,118.053 32.594,113.667" id="Path" fill="#BBBDBF" fill-rule="nonzero" mask="url(#mask-86)"></path>
                </g>
            </g>
            <g id="Group">
                <g id="Clipped">
                    <mask id="mask-88" fill="white">
                        <use xlink:href="#path-87"></use>
                    </mask>
                    <g id="prefix__aI"></g>
                    <polygon id="Path" fill="#BBBDBF" fill-rule="nonzero" mask="url(#mask-88)" points="82.751 111.428 71.159 84.782 82.182 79.973 92.825 104.438"></polygon>
                </g>
            </g>
            <g id="Group">
                <g id="Clipped">
                    <mask id="mask-90" fill="white">
                        <use xlink:href="#path-89"></use>
                    </mask>
                    <g id="prefix__aK"></g>
                    <path d="M80.11,129.328 C80.185,129.591 80.219,129.853 80.212,130.112 C80.195,131.322 79.365,132.425 78.127,132.718 C70.896,134.448 63.807,135.3 56.847,135.32 C49.446,135.35 42.191,134.438 35.078,132.643 C34.588,132.52 34.16,132.268 33.823,131.931 C33.245,131.355 32.935,130.527 33.041,129.666 L34.915,114.426 C35.476,109.885 35.405,110.348 34.708,105.828 L34.408,104.513 L30.401,86.953 L80.74,86.953 L80.057,89.866 L77.312,101.57 C75.424,109.63 75.573,112.968 77.754,120.949 C77.754,120.949 77.754,120.952 77.757,120.956 C77.791,121.092 77.829,121.228 77.867,121.364 L80.111,129.328 L80.11,129.328 Z" id="Path" fill="#BBBDBF" fill-rule="nonzero" mask="url(#mask-90)"></path>
                </g>
            </g>
            <g id="Group" transform="translate(68.975000, 138.770000)">
                <g id="Clipped">
                    <mask id="mask-92" fill="white">
                        <use xlink:href="#path-91"></use>
                    </mask>
                    <g id="prefix__aM"></g>
                    <path d="M0.103,0.056 C0.535,1.115 1.193,2.082 2.054,2.814 C2.91,3.552 3.94,4.066 5.027,4.342 C6.117,4.625 7.249,4.638 8.371,4.607 C9.501,4.574 10.618,4.369 11.76,4.201 L11.772,4.245 C11.503,4.348 11.229,4.437 10.956,4.534 L10.542,4.669 C10.402,4.705 10.261,4.736 10.12,4.769 C9.837,4.834 9.554,4.903 9.268,4.953 L8.401,5.062 C7.237,5.163 6.051,5.028 4.929,4.694 C3.806,4.36 2.754,3.78 1.9,2.983 C1.052,2.18 0.437,1.158 0.06,0.072 L0.103,0.056 Z" id="Path" fill="#B0D3EB" fill-rule="nonzero" mask="url(#mask-92)"></path>
                </g>
            </g>
            <g id="Group" transform="translate(33.945000, 138.150000)">
                <g id="Clipped">
                    <mask id="mask-94" fill="white">
                        <use xlink:href="#path-93"></use>
                    </mask>
                    <g id="prefix__aO"></g>
                    <path d="M11.892,0.097 C11.612,1.267 11.038,2.377 10.214,3.275 C9.799,3.722 9.327,4.116 8.812,4.445 C8.296,4.775 7.737,5.036 7.158,5.234 C6.578,5.433 5.978,5.568 5.371,5.653 C4.763,5.728 4.149,5.743 3.541,5.696 C3.237,5.675 2.935,5.635 2.634,5.592 C2.484,5.568 2.335,5.536 2.186,5.509 L1.963,5.467 L1.743,5.412 C1.151,5.282 0.578,5.082 0.016,4.866 L0.029,4.822 C1.214,5.025 2.387,5.213 3.565,5.242 C4.737,5.272 5.921,5.228 7.047,4.887 C7.607,4.719 8.151,4.49 8.657,4.193 C9.164,3.896 9.633,3.534 10.05,3.117 C10.89,2.29 11.51,1.232 11.848,0.085 L11.892,0.097 Z" id="Path" fill="#B0D3EB" fill-rule="nonzero" mask="url(#mask-94)"></path>
                </g>
            </g>
            <g id="Group" transform="translate(50.685000, 52.620000)">
                <g id="Clipped">
                    <mask id="mask-96" fill="white">
                        <use xlink:href="#path-95"></use>
                    </mask>
                    <g id="prefix__aQ"></g>
                    <path d="M10.437,0.45 C10.437,2.208 8.132,3.633 5.287,3.633 C2.445,3.633 0.138,2.208 0.138999675,0.45 C0.138999675,0.123 10.439,-0.089 10.439,0.45" id="Path" fill="#D69871" fill-rule="nonzero" mask="url(#mask-96)"></path>
                </g>
            </g>
            <g id="Group">
                <g id="Clipped">
                    <mask id="mask-98" fill="white">
                        <use xlink:href="#path-97"></use>
                    </mask>
                    <g id="prefix__aS"></g>
                    <path d="M60.377,164.85 L40.041,168.68 C31.594,167.985 29.576,156.064 32.181,149.02 C35.452,142.555 48.916,139.497 59.307,139.628 C60.804,139.647 62.249,140.191 63.388,141.163 C65.155,142.67 65.971,145.016 65.521,147.296 L60.377,164.849 L60.377,164.85 Z" id="Path" fill="#539FD4" fill-rule="nonzero" mask="url(#mask-98)"></path>
                </g>
            </g>
            <g id="Group">
                <g id="Clipped">
                    <mask id="mask-100" fill="white">
                        <use xlink:href="#path-99"></use>
                    </mask>
                    <g id="prefix__aU"></g>
                    <path d="M90.145,165.098 L68.82,163.206 L69.456,159.474 L61.113,160.018 L60.531,151.289 C65.192,145.743 82.41,139.361 92.496,141.868 C93.949,142.229 95.231,143.09 96.118,144.297 C97.494,146.169 97.753,148.639 96.794,150.757 L90.145,165.097 L90.145,165.098 Z" id="Path" fill="#539FD4" fill-rule="nonzero" mask="url(#mask-100)"></path>
                </g>
            </g>
            <g id="Group">
                <g id="Clipped">
                    <mask id="mask-102" fill="white">
                        <use xlink:href="#path-101"></use>
                    </mask>
                    <g id="prefix__aW"></g>
                    <polygon id="Path" fill="#FFFFFF" fill-rule="nonzero" mask="url(#mask-102)" points="82.777 140.663 55.57 135.685 53.559 100.204 55.57 97.978 82.777 102.956"></polygon>
                </g>
            </g>
            <g id="Group">
                <g id="Clipped">
                    <mask id="mask-104" fill="white">
                        <use xlink:href="#path-103"></use>
                    </mask>
                    <g id="prefix__aY"></g>
                    <polygon id="Path" fill="#E75A71" fill-rule="nonzero" mask="url(#mask-104)" points="79.928 142.461 52.722 137.483 52.722 99.776 79.928 104.754"></polygon>
                </g>
            </g>
            <g id="Group">
                <g id="Clipped">
                    <mask id="mask-106" fill="white">
                        <use xlink:href="#path-105"></use>
                    </mask>
                    <g id="prefix__ba"></g>
                    <polygon id="Path" fill="#FFFFFF" fill-rule="nonzero" mask="url(#mask-106)" points="80.739 140.94 92.714 130.841 94.784 95.17 91.167 94.753 80.739 103.233"></polygon>
                </g>
            </g>
            <g id="Group">
                <g id="Clipped">
                    <mask id="mask-108" fill="white">
                        <use xlink:href="#path-107"></use>
                    </mask>
                    <g id="prefix__bc"></g>
                    <polygon id="Path" fill="#E75A71" fill-rule="nonzero" mask="url(#mask-108)" points="83.42 142.461 95.395 132.362 95.395 94.655 83.42 104.754"></polygon>
                </g>
            </g>
            <g id="Group" transform="translate(33.015000, 104.466000)">
                <g id="Clipped">
                    <mask id="mask-110" fill="white">
                        <use xlink:href="#path-109"></use>
                    </mask>
                    <g id="prefix__be"></g>
                    <path d="M23.832,30.855 C16.432,30.885 9.176,29.972 2.063,28.177 C1.573,28.054 1.145,27.802 0.808,27.465 C0.23,26.889 -0.08,26.062 0.026,25.2 L1.9,9.96 C2.461,5.42 2.39,5.882 1.693,1.362 L1.393,0.047 L20.428,22.468 C21.043,25.091 24.591,28.702 23.832,30.855" id="Path" fill="#BBBDBF" fill-rule="nonzero" mask="url(#mask-110)"></path>
                </g>
            </g>
            <g id="Group">
                <g id="Clipped">
                    <mask id="mask-112" fill="white">
                        <use xlink:href="#path-111"></use>
                    </mask>
                    <g id="prefix__bg"></g>
                    <polygon id="Path" stroke="#EEAC4C" stroke-width="0.5" mask="url(#mask-112)" points="77.821 139.155 54.829 134.948 54.829 103.082 77.821 107.289"></polygon>
                </g>
            </g>
            <g id="Group">
                <g id="Clipped">
                    <mask id="mask-114" fill="white">
                        <use xlink:href="#path-113"></use>
                    </mask>
                    <g id="prefix__bi"></g>
                    <path d="M83.42,142.46 C82.172,142.998 80.924,142.998 79.675,142.46 L79.675,104.81 C80.924,104.414 82.172,104.414 83.42,104.81 L83.42,142.46 Z" id="Path" fill="#E74171" fill-rule="nonzero" mask="url(#mask-114)"></path>
                </g>
            </g>
            <path d="M56.246,98.884 L79.149,103.311 M55.57,99.403 L78.473,103.83 M82.777,102.956 L91.266,95.701 M84.336,102.956 L92.825,95.701" id="Shape" stroke="#8A8E9D" stroke-width="0.5"></path>
            <g id="Group">
                <g id="Clipped">
                    <mask id="mask-116" fill="white">
                        <use xlink:href="#path-115"></use>
                    </mask>
                    <g id="prefix__bk"></g>
                    <path d="M58.509,137.61 L46.912,131.922 C46.742,130.187 48.144,128.213 48.687,126.631 L55.149,127.819 C55.371,127.859 55.599,127.86 55.82,127.822 L59.237,127.229 C59.623,127.159 60.02,127.199 60.383,127.347 L63.595,128.773 L65.76,129.34 C66.236,129.451 66.345,129.83 66.361,130.203 C66.384,130.714 66.051,131.03 65.622,131.165 C65.604,131.17 64.992,131.291 64.938,131.295 C64.535,131.327 62.81,131.127 62.81,131.127 L64.542,132.157" id="Path" fill="#DBA68A" fill-rule="nonzero" mask="url(#mask-116)"></path>
                </g>
            </g>
            <g id="Group">
                <g id="Clipped">
                    <mask id="mask-118" fill="white">
                        <use xlink:href="#path-117"></use>
                    </mask>
                    <g id="prefix__bm"></g>
                    <path d="M68.579,133.96 C68.665,133.677 68.508,133.378 68.226,133.291 L61.904,131.343 L61.402,132.976 L67.113,134.736 C67.733,134.926 68.388,134.579 68.579,133.959" id="Path" fill="#DBA68A" fill-rule="nonzero" mask="url(#mask-118)"></path>
                </g>
            </g>
            <g id="Group">
                <g id="Clipped">
                    <mask id="mask-120" fill="white">
                        <use xlink:href="#path-119"></use>
                    </mask>
                    <g id="prefix__bo"></g>
                    <path d="M64.336,138.415 C64.446,138.057 64.246,137.677 63.888,137.567 L58.904,136.032 L58.429,137.579 L63.161,139.038 C63.658,139.19 64.183,138.912 64.336,138.415" id="Path" fill="#DBA68A" fill-rule="nonzero" mask="url(#mask-120)"></path>
                </g>
            </g>
            <g id="Group">
                <g id="Clipped">
                    <mask id="mask-122" fill="white">
                        <use xlink:href="#path-121"></use>
                    </mask>
                    <g id="prefix__bq"></g>
                    <path d="M66.69,137.232 C66.796,136.889 66.604,136.525 66.261,136.419 L57.791,133.809 L57.261,135.534 L65.249,137.996 C65.858,138.184 66.503,137.842 66.691,137.232" id="Path" fill="#DBA68A" fill-rule="nonzero" mask="url(#mask-122)"></path>
                </g>
            </g>
            <g id="Group">
                <g id="Clipped">
                    <mask id="mask-124" fill="white">
                        <use xlink:href="#path-123"></use>
                    </mask>
                    <g id="prefix__bs"></g>
                    <path d="M68.845,135.87 C68.948,135.534 68.76,135.178 68.424,135.074 L58.387,131.981 L57.82,133.824 L67.233,136.724 C67.913,136.934 68.635,136.552 68.845,135.87" id="Path" fill="#DBA68A" fill-rule="nonzero" mask="url(#mask-124)"></path>
                </g>
            </g>
            <g id="Group">
                <g id="Clipped">
                    <mask id="mask-126" fill="white">
                        <use xlink:href="#path-125"></use>
                    </mask>
                    <g id="prefix__bu"></g>
                    <path d="M27.77,124.187 L49.937,134.126 C52.052,132.291 52.521,129.894 51.866,127.114 L31.479,113.667 L20.192,118.247 L22.285,120.067 C23.46,121.087 26.347,123.554 27.769,124.187" id="Path" fill="#BBBDBF" fill-rule="nonzero" mask="url(#mask-126)"></path>
                </g>
            </g>
            <g id="Group">
                <g id="Clipped">
                    <mask id="mask-128" fill="white">
                        <use xlink:href="#path-127"></use>
                    </mask>
                    <g id="prefix__bw"></g>
                    <polygon id="Path" stroke="#EEAC4C" stroke-width="0.5" mask="url(#mask-128)" points="84.439 138.391 94.375 130.011 94.375 98.725 84.439 107.104"></polygon>
                </g>
            </g>
            <path d="M40,37 C41.81,28.015 46.837,23.053 55.078,22.112 C63.319,21.172 58.573,26.135 40.84,37" id="Path" fill="#2A2A2B" fill-rule="nonzero"></path>
        </g>
    </g>
</svg>