<svg xmlns="http://www.w3.org/2000/svg" xmlns:xlink="http://www.w3.org/1999/xlink" width="155" height="154" viewBox="0 0 155 154">
    <defs>
        <path id="prefix__a" d="M77 0c42.526 0 77 34.474 77 77s-34.474 77-77 77S0 119.526 0 77 34.474 0 77 0z"/>
        <path id="prefix__c" d="M0.073 0.044L7.421 0.044 7.421 23.851 0.073 23.851z"/>
        <path id="prefix__e" d="M21.577.08v38.553L.02 38.632C.333 24.502 4.449 11.319 11.375.08h10.202z"/>
        <path id="prefix__g" d="M0.132 0.117L4.291 0.117 4.291 13.973 0.132 13.973z"/>
        <path id="prefix__i" d="M0.097 0.137L11.693 0.137 11.693 27.324 0.097 27.324z"/>
        <path id="prefix__k" d="M0.169 0.027L1.194 0.027 1.194 24.896 0.169 24.896z"/>
        <path id="prefix__m" d="M0.127 0.097L32.362 0.097 32.362 24.96 0.127 24.96z"/>
    </defs>
    <g fill="none" fill-rule="evenodd">
        <path fill="#F9E3C2" d="M155 77c0-42.526-34.698-77-77.5-77S0 34.474 0 77s34.698 77 77.5 77S155 119.526 155 77"/>
        <g transform="translate(1)">
            <mask id="prefix__b" fill="#fff">
                <use xlink:href="#prefix__a"/>
            </mask>
            <path fill="#F7C8D0" d="M-13 102L161 102 161 -10 -13 -10z" mask="url(#prefix__b)"/>
            <path fill="#F5BA9A" d="M35.076 75L8.188 66.069c-.881-3.72 1.583-8.426 2.297-12.025l14.4.67c.493.023.987-.042 1.458-.191l7.255-2.3c.817-.266 1.693-.295 2.526-.081l7.403 2.148 4.873.592c1.069.1 1.416.89 1.563 1.698.2 1.105-.432 1.89-1.324 2.308-.038.017-1.33.462-1.448.487-.867.189-4.676.263-4.676.263l4.068 1.725" mask="url(#prefix__b)"/>
            <path fill="#F5BA9A" d="M55.984 63.795c.106-.653-.328-1.27-.97-1.377L40.613 60 40 63.78l13.01 2.184c1.41.237 2.742-.734 2.974-2.17M47.98 75.37c.133-.764-.41-1.486-1.214-1.612L35.572 72 35 75.304l10.63 1.67c1.114.175 2.166-.543 2.35-1.604M52.98 71.856c.129-.785-.396-1.526-1.172-1.656L32.643 67 32 70.947l18.075 3.018c1.377.23 2.679-.714 2.906-2.109" mask="url(#prefix__b)"/>
            <path fill="#F5BA9A" d="M56.982 68.546c.122-.788-.38-1.532-1.123-1.662L33.671 63 33 67.318l20.808 3.643c1.505.263 2.925-.818 3.174-2.415" mask="url(#prefix__b)"/>
            <g fill="#F5BA9A" mask="url(#prefix__b)">
                <g>
                    <path d="M26.81 23.193L.222 14.192c-.87-3.75 1.566-8.492 2.272-12.12l14.24.675c.488.023.976-.042 1.442-.193L25.35.237c.808-.269 1.674-.298 2.498-.083l7.32 2.166 4.82.596c1.057.102 1.4.898 1.545 1.712.198 1.113-.427 1.904-1.309 2.326-.038.017-1.316.466-1.432.491-.857.19-4.625.265-4.625.265l4.023 1.739" transform="translate(8 52)"/>
                    <path d="M47.394 12.195c.104-.644-.322-1.251-.953-1.357l-14.16-2.383-.602 3.726 12.792 2.152c1.386.234 2.695-.724 2.923-2.138M39.573 23.22c.132-.817-.41-1.589-1.21-1.723L27.2 19.618l-.57 3.532 10.6 1.784c1.11.187 2.16-.58 2.343-1.714" transform="translate(8 52)"/>
                    <path d="M44.29 19.927c.127-.784-.393-1.523-1.16-1.653l-18.971-3.192-.637 3.938 17.891 3.01c1.364.23 2.652-.712 2.877-2.103" transform="translate(8 52)"/>
                    <path d="M48.524 16.302c.124-.767-.386-1.492-1.138-1.618L24.906 10.9l-.68 4.206 21.082 3.548c1.525.257 2.964-.796 3.216-2.352" transform="translate(8 52)"/>
                </g>
            </g>
            <path fill="#B6D6ED" d="M53.825 33L22 101.389 50.328 107 86 101.389z" mask="url(#prefix__b)"/>
            <path stroke="#383B3F" stroke-linecap="round" stroke-linejoin="round" stroke-width="5.783" d="M98 99V44.266C98 29.759 86.314 18 71.899 18H54v15.163" mask="url(#prefix__b)"/>
            <path stroke="#383B3F" stroke-linecap="round" stroke-linejoin="round" stroke-width="2.892" d="M98 87L110 87M117 80L104 93M117 93L104 80" mask="url(#prefix__b)"/>
            <path fill="#6DAEDB" d="M149 99h-27V59.678c0-4.793 3.99-8.678 8.913-8.678h9.174c4.923 0 8.913 3.885 8.913 8.678V99z" mask="url(#prefix__b)"/>
            <path stroke="#383B3F" stroke-linecap="round" stroke-linejoin="round" stroke-width="1.928" d="M135 48L135 39 127 39" mask="url(#prefix__b)"/>
            <path fill="#383B3F" d="M130 51L140 51 140 46 130 46z" mask="url(#prefix__b)"/>
            <path fill="#EEAC4C" d="M-68 113L190 113 190 99 -68 99z" mask="url(#prefix__b)"/>
            <path fill="#FFF" d="M60.799 137H-8.8C-27.135 137-42 121.982-42 103.457V99H94v4.457C94 121.982 79.135 137 60.799 137" mask="url(#prefix__b)"/>
            <path stroke="#383B3F" stroke-linecap="round" stroke-linejoin="round" stroke-width="2.892" d="M110 78L110 96" mask="url(#prefix__b)"/>
            <g mask="url(#prefix__b)">
                <g transform="translate(44 48)">
                    <mask id="prefix__d" fill="#fff">
                        <use xlink:href="#prefix__c"/>
                    </mask>
                    <path fill="#358ECD" d="M7.421.044c-.474 2.032-1.014 4.041-1.578 6.042-.275 1.003-.575 1.997-.863 2.996l-.9 2.982-.936 2.97c-.325.985-.637 1.975-.974 2.956C1.51 19.957.824 21.916.073 23.851.547 21.82 1.087 19.81 1.65 17.81c.276-1.003.576-1.997.864-2.996l.9-2.982.938-2.97c.324-.985.637-1.974.974-2.956C5.986 3.938 6.67 1.98 7.42.045" mask="url(#prefix__d)"/>
                </g>
            </g>
            <path fill="#E75A71" d="M-80.078 36L-86 53.278 14.856 74.995c1.8.388 8.645-21.831 6.845-22.219L-80.078 36z" mask="url(#prefix__b)"/>
            <g mask="url(#prefix__b)">
                <g transform="translate(0 36)">
                    <mask id="prefix__f" fill="#fff">
                        <use xlink:href="#prefix__e"/>
                    </mask>
                    <path fill="#E75A71" d="M-79.044.08l-5.837 17.08 99.416 21.468c1.774.383 8.522-21.58 6.747-21.964L-79.044.08z" mask="url(#prefix__f)"/>
                </g>
            </g>
            <g mask="url(#prefix__b)">
                <g transform="translate(43 81)">
                    <mask id="prefix__h" fill="#fff">
                        <use xlink:href="#prefix__g"/>
                    </mask>
                    <path fill="#358ECD" d="M4.291.117c-.186 1.197-.45 2.373-.739 3.543-.285 1.17-.609 2.331-.954 3.487-.347 1.154-.717 2.303-1.125 3.441-.403 1.14-.834 2.273-1.341 3.385.185-1.196.448-2.373.738-3.542.285-1.171.609-2.332.955-3.487.348-1.154.718-2.303 1.126-3.441.403-1.14.834-2.273 1.34-3.386" mask="url(#prefix__h)"/>
                </g>
            </g>
            <g mask="url(#prefix__b)">
                <g transform="translate(60 63)">
                    <mask id="prefix__j" fill="#fff">
                        <use xlink:href="#prefix__i"/>
                    </mask>
                    <path fill="#358ECD" d="M.097.137C1.2 2.343 2.239 4.577 3.254 6.822c.514 1.12 1.004 2.25 1.505 3.374l1.468 3.39 1.432 3.407c.465 1.14.942 2.276 1.394 3.422.918 2.287 1.812 4.584 2.64 6.91-1.105-2.206-2.143-4.44-3.158-6.685-.514-1.12-1.003-2.25-1.505-3.374l-1.467-3.391-1.431-3.406c-.465-1.14-.941-2.277-1.394-3.423C1.82 4.76.926 2.463.097.137" mask="url(#prefix__j)"/>
                </g>
            </g>
            <g mask="url(#prefix__b)">
                <g transform="translate(54 59)">
                    <mask id="prefix__l" fill="#fff">
                        <use xlink:href="#prefix__k"/>
                    </mask>
                    <path fill="#358ECD" d="M.453 24.896c-.161-2.075-.228-4.148-.26-6.222-.026-1.036-.017-2.073-.024-3.11l.03-3.108.082-3.109C.327 8.312.354 7.275.418 6.24.527 4.168.67 2.097.908.027c.163 2.074.23 4.148.262 6.221.026 1.037.016 2.073.024 3.11l-.032 3.109-.083 3.108c-.045 1.036-.074 2.072-.138 3.108-.108 2.071-.25 4.143-.488 6.213" mask="url(#prefix__l)"/>
                </g>
            </g>
            <path fill="#F5BA9A" d="M32.352 86.6L.405 88C-2.017 84.44-1.308 78.498-2 74.424l15.456-5.077c.53-.174 1.025-.44 1.462-.787l6.729-5.332c.754-.61 1.667-.991 2.631-1.101l8.671-.712 5.377-1.334c1.168-.323 1.852.37 2.33 1.16.656 1.081.304 2.16-.468 2.96-.034.033-1.219 1.02-1.332 1.094-.839.546-4.827 2.154-4.827 2.154l4.983.182" mask="url(#prefix__b)"/>
            <path fill="#F5BA9A" d="M49.94 66.996c-.148-.673-.859-1.108-1.587-.97L32 69.1 32.858 73l14.773-2.779c1.601-.3 2.635-1.745 2.309-3.225M45.952 81.44c-.189-.973-1.094-1.602-2.021-1.403L31 82.795 31.816 87l12.28-2.62c1.287-.274 2.118-1.591 1.856-2.94" mask="url(#prefix__b)"/>
            <path fill="#F5BA9A" d="M48.943 76.32c-.173-.892-1.006-1.468-1.859-1.287L26 79.517 26.873 84l19.884-4.228c1.516-.323 2.495-1.868 2.186-3.452M51.936 70.276c-.17-.862-.99-1.42-1.83-1.244L25 74.275 25.937 79l23.544-4.916c1.702-.356 2.802-2.06 2.455-3.808" mask="url(#prefix__b)"/>
            <path fill="#E75A71" d="M-80.521 103L-86 85.23l98.397-18.227c1.756-.325 8.053 22.498 6.297 22.823L-80.521 103z" mask="url(#prefix__b)"/>
            <g mask="url(#prefix__b)">
                <g transform="translate(28 58)">
                    <mask id="prefix__n" fill="#fff">
                        <use xlink:href="#prefix__m"/>
                    </mask>
                    <path fill="#FFF" d="M32.362 12.765c0-4.677-3.633-8.512-8.265-8.918C22.685 1.6 20.17.097 17.294.097c-3.142 0-5.854 1.79-7.165 4.39-.34-.068-.692-.104-1.052-.104-2.891 0-5.234 2.314-5.234 5.168 0 .248.023.49.058.729-2.212.887-3.774 3.026-3.774 5.529 0 3.296 2.707 5.968 6.046 5.968 1.712 0 3.255-.705 4.355-1.833.875 2.9 3.593 5.016 6.816 5.016 2.515 0 4.721-1.293 5.986-3.238 4.992-.024 9.032-4.023 9.032-8.957" mask="url(#prefix__n)"/>
                </g>
            </g>
            <path fill="#373B3E" d="M58.079 39H49.92c-.508 0-.921-.388-.921-.867v-8.267c0-.478.413-.866.921-.866h8.158c.508 0 .921.388.921.866v8.267c0 .479-.413.867-.921.867" mask="url(#prefix__b)"/>
            <path fill="#383B3F" d="M127 41L130 41 130 39 127 39z" mask="url(#prefix__b)"/>
        </g>
    </g>
</svg>
